<svg xmlns="http://www.w3.org/2000/svg" width="72.244" height="75.834" viewBox="0 0 72.244 75.834"><path d="M-867.834-386.933a4,4,0,0,1-3.746-2.594,3.988,3.988,0,0,1-.371-.916l-8.282-30.91a4,4,0,0,1,2.829-4.9,4,4,0,0,1,4.9,2.828l7.634,28.49h41.247l7.634-28.49a4,4,0,0,1,4.9-2.828,4,4,0,0,1,2.829,4.9l-8.282,30.91a3.986,3.986,0,0,1-.934,1.688,3.994,3.994,0,0,1-3.355,1.822Zm-8.5-44a4,4,0,0,1-4-4,4,4,0,0,1,4-4h9.339a3.509,3.509,0,0,1,.3-.786l11.267-21.191a3.5,3.5,0,0,1,4.734-1.447,3.5,3.5,0,0,1,1.447,4.734l-9.937,18.689h30.532l-9.937-18.689a3.5,3.5,0,0,1,1.447-4.734,3.5,3.5,0,0,1,4.734,1.447l11.267,21.191a3.509,3.509,0,0,1,.3.786h8.5a4,4,0,0,1,4,4,4,4,0,0,1-4,4Z" transform="translate(880.37 462.767)" fill="#333"/></svg>