<svg xmlns="http://www.w3.org/2000/svg" xmlns:xlink="http://www.w3.org/1999/xlink" width="80" height="80" viewBox="0 0 80 80"><defs><clipPath id="b"><rect width="80" height="80"/></clipPath></defs><g id="a" clip-path="url(#b)"><rect width="80" height="80" fill="#fff"/><g transform="translate(9 -0.158)"><rect width="37" height="8" rx="4" transform="translate(20.393 48.388)" fill="#333"/><rect width="49" height="8" rx="4" transform="matrix(-0.208, -0.978, 0.978, -0.208, 21.004, 55.751)" fill="#333"/><rect width="31" height="8" rx="4" transform="translate(48.286 53.44) rotate(-60)" fill="#333"/><rect width="51" height="8" rx="4" transform="translate(19 27)" fill="#333"/><rect width="17" height="8" rx="4" transform="translate(2 7)" fill="#333"/><rect width="21" height="8" rx="4" transform="translate(-9 27)" fill="#333"/><rect width="21" height="8" rx="4" transform="translate(-6 39)" fill="#333"/><rect width="20" height="8" rx="4" transform="translate(-1 51)" fill="#333"/><g transform="translate(21 59)" fill="none" stroke="#333" stroke-width="9"><circle cx="7.5" cy="7.5" r="7.5" stroke="none"/><circle cx="7.5" cy="7.5" r="3" fill="none"/></g><g transform="translate(41 59)" fill="none" stroke="#333" stroke-width="9"><circle cx="7.5" cy="7.5" r="7.5" stroke="none"/><circle cx="7.5" cy="7.5" r="3" fill="none"/></g></g></g></svg>