<svg width="24" height="24" viewBox="0 0 24 24" fill="none" xmlns="http://www.w3.org/2000/svg">
<path d="M16.5 11.8282C16.249 11.8209 16.0108 11.714 15.8358 11.5302C15.6608 11.3464 15.5629 11.1002 15.5629 10.8439C15.5629 10.5876 15.6608 10.3414 15.8358 10.1576C16.0108 9.97382 16.249 9.86692 16.5 9.85962C16.751 9.86692 16.9892 9.97382 17.1642 10.1576C17.3392 10.3414 17.4371 10.5876 17.4371 10.8439C17.4371 11.1002 17.3392 11.3464 17.1642 11.5302C16.9892 11.714 16.751 11.8209 16.5 11.8282ZM7.5 11.8282C7.24904 11.8209 7.01076 11.714 6.83578 11.5302C6.6608 11.3464 6.56291 11.1002 6.56291 10.8439C6.56291 10.5876 6.6608 10.3414 6.83578 10.1576C7.01076 9.97382 7.24904 9.86692 7.5 9.85962C7.75096 9.86692 7.98924 9.97382 8.16422 10.1576C8.3392 10.3414 8.43709 10.5876 8.43709 10.8439C8.43709 11.1002 8.3392 11.3464 8.16422 11.5302C7.98924 11.714 7.75096 11.8209 7.5 11.8282ZM8.14291 6.2501C8.14291 4.07904 9.87326 2.31262 12 2.31262C14.1267 2.31262 15.8571 4.07904 15.8571 6.2501V8.87495H8.14291V6.2501V6.2501ZM19.7142 8.87495H17.1429V6.2501C17.1429 3.35082 14.8401 1 12 1C9.15991 1 6.85709 3.35082 6.85709 6.2501V8.87495H4.28583L3 22H21L19.7142 8.87495V8.87495Z" fill="#333333"/>
</svg>
