<svg xmlns="http://www.w3.org/2000/svg" width="64" height="60" viewBox="0 0 64 60"><path d="M-841-412a8,8,0,0,1,8-8,8,8,0,0,1,8,8,8,8,0,0,1-8,8A8,8,0,0,1-841-412Zm-24,0a8,8,0,0,1,8-8,8,8,0,0,1,8,8,8,8,0,0,1-8,8A8,8,0,0,1-865-412Zm0-12a4,4,0,0,1-4-4,3.982,3.982,0,0,1,.389-1.723,3.993,3.993,0,0,1,2.46-2.423l22.81-7.854h-24.4a4,4,0,0,1-4.344-1.447A3.983,3.983,0,0,1-873-444a4,4,0,0,1,4-4h.071l26.167-8H-873a4,4,0,0,1-4-4,4,4,0,0,1,4-4h56a4,4,0,0,1,4,4,3.98,3.98,0,0,1-.7,2.267,3.988,3.988,0,0,1-2.356,1.934l-25.508,7.8H-821a4,4,0,0,1,4,4,3.981,3.981,0,0,1-.672,2.219,3.989,3.989,0,0,1-2.381,2.223L-842-432h17a4,4,0,0,1,4,4,4,4,0,0,1-4,4Z" transform="translate(877 464)" fill="#333"/></svg>