<svg width="24" height="24" viewBox="0 0 24 24" fill="none" xmlns="http://www.w3.org/2000/svg">
<path d="M6.73684 7.26316C6.73684 4.35632 9.09314 2 12 2C14.9068 2 17.2631 4.35632 17.2631 7.26316H20.9473C21.0945 7.26315 21.24 7.294 21.3745 7.35371C21.509 7.41342 21.6295 7.50067 21.7282 7.60983C21.8269 7.71899 21.9016 7.84763 21.9475 7.98745C21.9934 8.12727 22.0095 8.27516 21.9947 8.42158L20.8868 17.2668C20.7554 18.5644 20.147 19.767 19.1795 20.6415C18.2119 21.516 16.9541 22.0001 15.65 22H8.34999C7.0458 22.0001 5.78802 21.516 4.82047 20.6415C3.85291 19.767 3.2445 18.5644 3.11317 17.2668L2.00528 8.42105C1.99057 8.27468 2.0067 8.12684 2.05264 7.98709C2.09857 7.84733 2.1733 7.71876 2.27198 7.60966C2.37067 7.50056 2.49113 7.41335 2.62559 7.35367C2.76005 7.29399 2.90553 7.26316 3.05264 7.26316H6.73684V7.26316ZM8.84209 7.26316H15.1579C15.1579 6.42563 14.8252 5.62241 14.2329 5.03019C13.6407 4.43797 12.8375 4.10526 12 4.10526C11.1625 4.10526 10.3592 4.43797 9.76701 5.03019C9.1748 5.62241 8.84209 6.42563 8.84209 7.26316V7.26316ZM16 20.4211C16.8933 20.4211 17.7501 20.0662 18.3818 19.4345C19.0135 18.8028 19.3684 17.946 19.3684 17.0526C19.3684 16.8293 19.2796 16.6151 19.1217 16.4572C18.9638 16.2992 18.7496 16.2105 18.5263 16.2105C18.3029 16.2105 18.0887 16.2992 17.9308 16.4572C17.7729 16.6151 17.6842 16.8293 17.6842 17.0526C17.6842 17.2738 17.6406 17.4928 17.556 17.6972C17.4713 17.9015 17.3473 18.0872 17.1909 18.2435C17.0345 18.3999 16.8488 18.524 16.6445 18.6086C16.4401 18.6933 16.2211 18.7368 16 18.7368C15.7766 18.7368 15.5624 18.8256 15.4045 18.9835C15.2466 19.1414 15.1579 19.3556 15.1579 19.5789C15.1579 19.8023 15.2466 20.0165 15.4045 20.1744C15.5624 20.3323 15.7766 20.4211 16 20.4211V20.4211Z" fill="#333333"/>
</svg>
