<svg width="24" height="24" viewBox="0 0 24 24" fill="none" xmlns="http://www.w3.org/2000/svg">
<path d="M7.96476 18.0022C8.49539 18.0024 9.00419 18.2135 9.37921 18.5889C9.75424 18.9643 9.96478 19.4733 9.96452 20.0039C9.96425 20.5346 9.7532 21.0433 9.3778 21.4184C9.0024 21.7934 8.49339 22.0039 7.96276 22.0037C7.43213 22.0034 6.92333 21.7924 6.54831 21.417C6.17328 21.0416 5.96274 20.5326 5.96301 20.0019C5.96327 19.4713 6.17432 18.9625 6.54972 18.5875C6.92512 18.2124 7.43413 18.0019 7.96476 18.0022ZM18.9662 18.0022C19.2289 18.0023 19.489 18.0542 19.7317 18.1548C19.9744 18.2555 20.1949 18.403 20.3806 18.5889C20.5663 18.7748 20.7136 18.9954 20.814 19.2382C20.9144 19.481 20.966 19.7412 20.9659 20.0039C20.9658 20.2667 20.9139 20.5268 20.8132 20.7695C20.7126 21.0122 20.5651 21.2327 20.3792 21.4184C20.1933 21.6041 19.9727 21.7513 19.7299 21.8518C19.4871 21.9522 19.2269 22.0038 18.9642 22.0037C18.4335 22.0034 17.9247 21.7924 17.5497 21.417C17.1747 21.0416 16.9641 20.5326 16.9644 20.0019C16.9647 19.4713 17.1757 18.9625 17.5511 18.5875C17.9265 18.2124 18.4355 18.0019 18.9662 18.0022V18.0022ZM19.1102 13.1125L19.9653 7.00176H6.96363L8.49983 14.7728L19.1112 13.1125H19.1102ZM6.62059 5.00151H21.2635C21.4163 5.00147 21.5671 5.03645 21.7043 5.10378C21.8415 5.17111 21.9615 5.26899 22.0549 5.3899C22.1484 5.51081 22.213 5.65153 22.2436 5.80127C22.2742 5.95101 22.2701 6.10577 22.2316 6.25367L21.0684 13.5186C20.9234 14.3207 20.2463 14.9718 19.3922 15.0928L7.84274 16.877C7.60047 16.9114 7.35399 16.8558 7.14996 16.7207C6.94593 16.5856 6.79851 16.3804 6.7356 16.1439L4.00025 3.00025H2V1H4.99538C5.21834 1.00001 5.4349 1.07451 5.61067 1.21168C5.78643 1.34885 5.91133 1.54082 5.96551 1.7571L6.62059 5.00051V5.00151Z" fill="#333333"/>
</svg>
