<svg width="20" height="20" viewBox="0 0 20 20" fill="none" xmlns="http://www.w3.org/2000/svg">
<path fill-rule="evenodd" clip-rule="evenodd" d="M10 0C4.48421 0 0 4.48421 0 10C0 15.5158 4.48421 20 10 20C15.5158 20 20 15.5158 20 10C20 4.48421 15.5158 0 10 0ZM10 18.4421C5.34737 18.4421 1.55789 14.6526 1.55789 10C1.55789 5.34737 5.34737 1.55789 10 1.55789C14.6526 1.55789 18.4421 5.34737 18.4421 10C18.4421 14.6526 14.6526 18.4421 10 18.4421ZM14.3393 11.1213L14.4635 11.2212L14.4674 11.2243L14.5424 11.2846L14.7639 11.4627L14.7777 11.4738L14.9474 11.6103L15.5369 12.0843C15.7053 12.2317 15.7053 12.4843 15.5369 12.6106L14.9474 13.0847L14.7777 13.2212L14.7599 13.2355L14.4635 13.4738L14.3393 13.5737L14.2684 13.6307L13.809 14.0001L13.4948 14.2527C13.2632 14.4422 12.9474 14.2738 12.9474 14.0001V13.5837V13.572V13.4738V13.2212H12.6653H12.6508H11.6843C11.1933 13.2212 10.719 13.079 10.3142 12.8209C10.0941 12.6807 9.89458 12.5061 9.72403 12.3016C9.71298 12.2884 9.70205 12.275 9.69124 12.2615L9.68428 12.2527L9.18396 11.6238L9.1523 11.584L8.94744 11.3264L8.75085 11.5736L8.74142 11.5854L8.2106 12.2527L8.1984 12.268L8.19622 12.2707C8.0202 12.4886 7.81175 12.6736 7.58067 12.8209C7.17586 13.079 6.70159 13.2212 6.2106 13.2212H5.61579H4.63165C4.46323 13.2212 4.33691 13.0949 4.33691 12.9264V11.8317C4.33691 11.6633 4.46323 11.537 4.63165 11.537H5.61579H6.2106C6.48428 11.537 6.71586 11.4317 6.88428 11.2212L6.89421 11.2087L6.89571 11.2068L7.63321 10.281L7.65107 10.2586L7.66854 10.2367L7.87376 9.97906L7.68784 9.74568L7.66854 9.72146L7.63321 9.6771L6.89571 8.75131L6.89421 8.74942L6.88428 8.73696C6.71586 8.54749 6.46323 8.42117 6.2106 8.42117H5.6158H4.63165C4.46323 8.42117 4.33691 8.29485 4.33691 8.12643V7.0317C4.33691 6.86328 4.46323 6.73696 4.63165 6.73696H5.6158H6.2106C6.69909 6.73696 7.17101 6.87771 7.57446 7.13324C7.78395 7.26593 7.97498 7.42957 8.14028 7.62052C8.16002 7.64333 8.1794 7.66653 8.1984 7.69012L8.2106 7.70538L8.74142 8.3727L8.76148 8.39792L8.94744 8.6317L9.14774 8.36844L9.14888 8.36694L9.67414 7.6766L9.67632 7.67374L9.68428 7.66327C9.8577 7.44462 10.0635 7.25837 10.2921 7.10936C10.7017 6.8423 11.1843 6.69485 11.6843 6.69485H11.7053H12.6653H12.6695H12.9474V6.44222V6.34748V6.34398V5.91591C12.9474 5.64222 13.2843 5.49485 13.4948 5.66327L13.809 5.91591L14.2684 6.28533L14.2685 6.28543L14.3393 6.34234L14.4635 6.44222L14.5424 6.50565L14.7639 6.68375L14.7777 6.69485L14.9474 6.83137L14.9685 6.8483L15.5369 7.30538C15.7053 7.45275 15.7053 7.70538 15.5369 7.8317L14.9685 8.28878L14.9474 8.30571L14.7777 8.44222L14.7689 8.44925L14.4679 8.69131L14.4635 8.69485L14.3393 8.79473L14.2684 8.85174L13.809 9.22117L13.7356 9.28018L13.4948 9.4738C13.2781 9.63141 12.9877 9.51248 12.9685 9.27228C12.9672 9.2558 12.9671 9.23874 12.9685 9.22117V8.81928V8.75012V8.69485V8.44222H12.9474H12.7446H12.7422H12.6653H11.7053L11.6843 8.44243C11.4386 8.44734 11.2278 8.53845 11.0676 8.71577C11.0598 8.72436 11.0521 8.73316 11.0446 8.74216L11.0317 8.75801L10.9685 8.83729L10.3078 9.66672L10.2452 9.74522L10.2449 9.74568L10.0422 10.0001L10.2326 10.2278L10.2397 10.2363L10.2709 10.2736L10.9474 11.0825L11.0106 11.158C11.0175 11.1658 11.0245 11.1734 11.0317 11.1809L11.0334 11.1828C11.2013 11.3584 11.4428 11.4738 11.6843 11.4738H12.6653H12.6695H12.7066H12.9474V11.2212V11.1264V11.1229V10.6949C12.9474 10.4212 13.2843 10.2738 13.4948 10.4422L13.809 10.6949L14.2684 11.0643L14.2685 11.0644L14.3393 11.1213Z" fill="url(#paint0_linear)"/>
<defs>
<linearGradient id="paint0_linear" x1="19.0882" y1="5" x2="0.45088" y2="6.00548" gradientUnits="userSpaceOnUse">
<stop stop-color="#E2C299"/>
<stop offset="1" stop-color="#C5A67C"/>
</linearGradient>
</defs>
</svg>
