<svg width="32" height="22" viewBox="0 0 32 22" fill="none" xmlns="http://www.w3.org/2000/svg">
<circle cx="10.535" cy="5.26745" r="4.26745" stroke="url(#paint0_linear)" stroke-width="2" stroke-linecap="round" stroke-linejoin="round"/>
<path d="M20.018 20.0696H1.05181C1.55166 15.2736 5.60664 11.5347 10.5349 11.5347C15.4632 11.5347 19.5181 15.2736 20.018 20.0696Z" stroke="url(#paint1_linear)" stroke-width="2" stroke-linecap="round" stroke-linejoin="round"/>
<mask id="path-3-inside-1" fill="white">
<path fill-rule="evenodd" clip-rule="evenodd" d="M27.9959 6.58398C27.9959 6.0317 27.5481 5.58398 26.9959 5.58398C26.4436 5.58398 25.9959 6.0317 25.9959 6.58398V9.27094H23.3076C22.7553 9.27094 22.3076 9.71866 22.3076 10.2709C22.3076 10.8232 22.7553 11.2709 23.3076 11.2709H25.9959V13.9584C25.9959 14.5107 26.4436 14.9584 26.9959 14.9584C27.5481 14.9584 27.9959 14.5107 27.9959 13.9584V11.2709H30.682C31.2343 11.2709 31.682 10.8232 31.682 10.2709C31.682 9.71866 31.2343 9.27094 30.682 9.27094H27.9959V6.58398Z"/>
</mask>
<path fill-rule="evenodd" clip-rule="evenodd" d="M27.9959 6.58398C27.9959 6.0317 27.5481 5.58398 26.9959 5.58398C26.4436 5.58398 25.9959 6.0317 25.9959 6.58398V9.27094H23.3076C22.7553 9.27094 22.3076 9.71866 22.3076 10.2709C22.3076 10.8232 22.7553 11.2709 23.3076 11.2709H25.9959V13.9584C25.9959 14.5107 26.4436 14.9584 26.9959 14.9584C27.5481 14.9584 27.9959 14.5107 27.9959 13.9584V11.2709H30.682C31.2343 11.2709 31.682 10.8232 31.682 10.2709C31.682 9.71866 31.2343 9.27094 30.682 9.27094H27.9959V6.58398Z" fill="url(#paint2_linear)"/>
<path d="M25.9959 9.27094V11.2709C27.1004 11.2709 27.9959 10.3755 27.9959 9.27094H25.9959ZM25.9959 11.2709H27.9959C27.9959 10.1664 27.1004 9.27094 25.9959 9.27094V11.2709ZM27.9959 11.2709V9.27094C26.8913 9.27094 25.9959 10.1664 25.9959 11.2709H27.9959ZM27.9959 9.27094H25.9959C25.9959 10.3755 26.8913 11.2709 27.9959 11.2709V9.27094ZM26.9959 7.58398C26.4436 7.58398 25.9959 7.13627 25.9959 6.58398H29.9959C29.9959 4.92713 28.6527 3.58398 26.9959 3.58398V7.58398ZM27.9959 6.58398C27.9959 7.13627 27.5481 7.58398 26.9959 7.58398V3.58398C25.339 3.58398 23.9959 4.92713 23.9959 6.58398H27.9959ZM27.9959 9.27094V6.58398H23.9959V9.27094H27.9959ZM23.3076 11.2709H25.9959V7.27094H23.3076V11.2709ZM24.3076 10.2709C24.3076 10.8232 23.8599 11.2709 23.3076 11.2709V7.27094C21.6508 7.27094 20.3076 8.61409 20.3076 10.2709H24.3076ZM23.3076 9.27094C23.8599 9.27094 24.3076 9.71866 24.3076 10.2709H20.3076C20.3076 11.9278 21.6508 13.2709 23.3076 13.2709V9.27094ZM25.9959 9.27094H23.3076V13.2709H25.9959V9.27094ZM27.9959 13.9584V11.2709H23.9959V13.9584H27.9959ZM26.9959 12.9584C27.5481 12.9584 27.9959 13.4061 27.9959 13.9584H23.9959C23.9959 15.6153 25.339 16.9584 26.9959 16.9584V12.9584ZM25.9959 13.9584C25.9959 13.4061 26.4436 12.9584 26.9959 12.9584V16.9584C28.6527 16.9584 29.9959 15.6153 29.9959 13.9584H25.9959ZM25.9959 11.2709V13.9584H29.9959V11.2709H25.9959ZM30.682 9.27094H27.9959V13.2709H30.682V9.27094ZM29.682 10.2709C29.682 9.71865 30.1298 9.27094 30.682 9.27094V13.2709C32.3389 13.2709 33.682 11.9278 33.682 10.2709H29.682ZM30.682 11.2709C30.1298 11.2709 29.682 10.8232 29.682 10.2709H33.682C33.682 8.61408 32.3389 7.27094 30.682 7.27094V11.2709ZM27.9959 11.2709H30.682V7.27094H27.9959V11.2709ZM25.9959 6.58398V9.27094H29.9959V6.58398H25.9959Z" fill="url(#paint3_linear)" mask="url(#path-3-inside-1)"/>
<defs>
<linearGradient id="paint0_linear" x1="15.3222" y1="2.63372" x2="5.49047" y2="3.18526" gradientUnits="userSpaceOnUse">
<stop stop-color="#E2C299"/>
<stop offset="1" stop-color="#C5A67C"/>
</linearGradient>
<linearGradient id="paint1_linear" x1="20.1093" y1="13.1684" x2="0.629123" y2="15.354" gradientUnits="userSpaceOnUse">
<stop stop-color="#E2C299"/>
<stop offset="1" stop-color="#C5A67C"/>
</linearGradient>
<linearGradient id="paint2_linear" x1="31.2547" y1="7.92759" x2="22.5134" y2="8.40722" gradientUnits="userSpaceOnUse">
<stop stop-color="#E2C299"/>
<stop offset="1" stop-color="#C5A67C"/>
</linearGradient>
<linearGradient id="paint3_linear" x1="31.2547" y1="7.92759" x2="22.5134" y2="8.40722" gradientUnits="userSpaceOnUse">
<stop stop-color="#E2C299"/>
<stop offset="1" stop-color="#C5A67C"/>
</linearGradient>
</defs>
</svg>
