<svg width="14" height="15" viewBox="0 0 14 15" fill="none" xmlns="http://www.w3.org/2000/svg">
<path d="M9.56547 4.4363C9.50119 4.37146 9.42471 4.32 9.34044 4.28488C9.25618 4.24976 9.16579 4.23168 9.07451 4.23168C8.98322 4.23168 8.89284 4.24976 8.80857 4.28488C8.72431 4.32 8.64782 4.37146 8.58354 4.4363L7 6.0274L5.41646 4.4363C5.28625 4.30604 5.10964 4.23286 4.92549 4.23286C4.74134 4.23286 4.56474 4.30604 4.43452 4.4363C4.30431 4.56657 4.23116 4.74324 4.23116 4.92747C4.23116 5.11169 4.30431 5.28837 4.43452 5.41863L6.02498 7.00281L4.43452 8.58698C4.36971 8.65129 4.31827 8.7278 4.28316 8.8121C4.24805 8.8964 4.22998 8.98682 4.22998 9.07815C4.22998 9.16947 4.24805 9.25989 4.28316 9.34419C4.31827 9.42849 4.36971 9.505 4.43452 9.56931C4.49881 9.63415 4.57529 9.68561 4.65956 9.72074C4.74382 9.75586 4.83421 9.77394 4.92549 9.77394C5.01678 9.77394 5.10716 9.75586 5.19143 9.72074C5.27569 9.68561 5.35217 9.63415 5.41646 9.56931L7 7.97822L8.58354 9.56931C8.64782 9.63415 8.72431 9.68561 8.80857 9.72074C8.89284 9.75586 8.98322 9.77394 9.07451 9.77394C9.16579 9.77394 9.25618 9.75586 9.34044 9.72074C9.42471 9.68561 9.50119 9.63415 9.56547 9.56931C9.63029 9.505 9.68173 9.42849 9.71684 9.34419C9.75194 9.25989 9.77002 9.16947 9.77002 9.07815C9.77002 8.98682 9.75194 8.8964 9.71684 8.8121C9.68173 8.7278 9.63029 8.65129 9.56547 8.58698L7.97502 7.00281L9.56547 5.41863C9.63029 5.35432 9.68173 5.27781 9.71684 5.19351C9.75194 5.10921 9.77002 5.01879 9.77002 4.92747C9.77002 4.83614 9.75194 4.74572 9.71684 4.66142C9.68173 4.57712 9.63029 4.50061 9.56547 4.4363ZM11.8889 2.11192C11.251 1.4512 10.488 0.924189 9.64434 0.561634C8.80068 0.199079 7.89329 0.00824306 6.97511 0.000261194C6.05694 -0.00772068 5.14637 0.167311 4.29654 0.515145C3.44671 0.862978 2.67463 1.37665 2.02536 2.02618C1.37609 2.67571 0.862632 3.44809 0.514938 4.29827C0.167244 5.14844 -0.00771758 6.05937 0.000261089 6.97791C0.00823976 7.89645 0.198999 8.80421 0.561409 9.6482C0.923819 10.4922 1.45062 11.2555 2.11108 11.8937C2.74897 12.5544 3.512 13.0814 4.35566 13.444C5.19932 13.8065 6.10671 13.9974 7.02489 14.0054C7.94306 14.0133 8.85363 13.8383 9.70346 13.4905C10.5533 13.1426 11.3254 12.629 11.9746 11.9794C12.6239 11.3299 13.1374 10.5575 13.4851 9.70735C13.8328 8.85718 14.0077 7.94624 13.9997 7.0277C13.9918 6.10916 13.801 5.20141 13.4386 4.35741C13.0762 3.51341 12.5494 2.75007 11.8889 2.11192ZM10.9139 10.9183C10.0094 11.8241 8.81902 12.3882 7.54545 12.5144C6.27188 12.6407 4.99395 12.3213 3.9294 11.6106C2.86484 10.8999 2.07951 9.84202 1.70722 8.61706C1.33492 7.39211 1.39869 6.07592 1.88766 4.89273C2.37663 3.70954 3.26054 2.73255 4.38881 2.12822C5.51708 1.52389 6.81989 1.32961 8.07529 1.57847C9.33069 1.82734 10.461 2.50395 11.2737 3.49303C12.0863 4.48212 12.531 5.72249 12.532 7.00281C12.5345 7.73007 12.3927 8.45059 12.115 9.12269C11.8372 9.79478 11.429 10.4051 10.9139 10.9183Z" fill="#FF7E7E"/>
</svg>
