<svg width="14" height="14" viewBox="0 0 14 14" fill="none" xmlns="http://www.w3.org/2000/svg">
<path fill-rule="evenodd" clip-rule="evenodd" d="M13 7C13 10.3137 10.3137 13 7 13C3.68629 13 1 10.3137 1 7C1 3.68629 3.68629 1 7 1C10.3137 1 13 3.68629 13 7ZM14 7C14 10.866 10.866 14 7 14C3.13401 14 0 10.866 0 7C0 3.13401 3.13401 0 7 0C10.866 0 14 3.13401 14 7ZM9.07107 9.77813L6.94975 7.65681L4.82843 9.77813L4.12132 9.07103L6.24264 6.94971L4.12132 4.82839L4.82843 4.12128L6.94975 6.2426L9.07107 4.12128L9.77817 4.82839L7.65685 6.94971L9.77817 9.07103L9.07107 9.77813Z" fill="url(#paint0_linear)"/>
<defs>
<linearGradient id="paint0_linear" x1="13.3618" y1="3.5" x2="0.289165" y2="4.24358" gradientUnits="userSpaceOnUse">
<stop stop-color="#E2C299"/>
<stop offset="1" stop-color="#C5A67C"/>
</linearGradient>
</defs>
</svg>
