<svg width="12" height="16" viewBox="0 0 12 16" fill="none" xmlns="http://www.w3.org/2000/svg">
<path fill-rule="evenodd" clip-rule="evenodd" d="M6 16C6 16 0 9.3 0 6C0 2.7 2.7 0 6 0C7.1 0 8.1 0.3 9 0.8V2C8.2 1.4 7.1 1 6 1C3.2 1 1 3.3 1 6.1C1 8.9 6 14.5 6 14.5C6 14.5 11 8.9 11 6.1C11 6.1 11 6.1 11 6H12C12 9.3 6 16 6 16ZM6.9 7.8C6.8 7.8 6.8 7.8 6.9 7.8C6.6 8 6.3 8 6.1 7.9L4.1 5.9C3.9 5.7 3.9 5.4 4.1 5.2C4.3 5 4.6 5 4.8 5.2L6.4 6.8L11.1 2.1C11.3 1.9 11.6 1.9 11.8 2.1C12 2.3 12 2.6 11.8 2.8L6.9 7.8Z" fill="white"/>
</svg>
