<svg width="12" height="12" viewBox="0 0 12 12" fill="none" xmlns="http://www.w3.org/2000/svg">
<path d="M7.632 4.074L5.058 6.654L4.068 5.664C4.01421 5.60119 3.94802 5.55018 3.87358 5.51416C3.79914 5.47815 3.71807 5.45791 3.63543 5.45472C3.5528 5.45153 3.4704 5.46545 3.39341 5.49562C3.31641 5.52578 3.24648 5.57154 3.18801 5.63001C3.12954 5.68848 3.08378 5.75841 3.05362 5.8354C3.02345 5.9124 3.00953 5.9948 3.01272 6.07743C3.01591 6.16006 3.03615 6.24114 3.07217 6.31558C3.10818 6.39002 3.15919 6.45621 3.222 6.51L4.632 7.926C4.68807 7.98161 4.75456 8.0256 4.82766 8.05546C4.90076 8.08532 4.97904 8.10045 5.058 8.1C5.21541 8.09933 5.36625 8.03684 5.478 7.926L8.478 4.926C8.53424 4.87022 8.57888 4.80386 8.60934 4.73074C8.6398 4.65763 8.65548 4.57921 8.65548 4.5C8.65548 4.42079 8.6398 4.34237 8.60934 4.26925C8.57888 4.19614 8.53424 4.12978 8.478 4.074C8.36558 3.96225 8.21351 3.89952 8.055 3.89952C7.89649 3.89952 7.74442 3.96225 7.632 4.074ZM6 0C4.81331 0 3.65328 0.351894 2.66658 1.01118C1.67989 1.67047 0.910851 2.60754 0.456725 3.7039C0.0025997 4.80025 -0.11622 6.00665 0.115291 7.17054C0.346802 8.33443 0.918247 9.40352 1.75736 10.2426C2.59648 11.0818 3.66557 11.6532 4.82946 11.8847C5.99335 12.1162 7.19975 11.9974 8.2961 11.5433C9.39246 11.0891 10.3295 10.3201 10.9888 9.33342C11.6481 8.34672 12 7.18669 12 6C12 5.21207 11.8448 4.43185 11.5433 3.7039C11.2417 2.97594 10.7998 2.31451 10.2426 1.75736C9.68549 1.20021 9.02406 0.758251 8.2961 0.456723C7.56815 0.155195 6.78793 0 6 0ZM6 10.8C5.05065 10.8 4.12262 10.5185 3.33326 9.99105C2.54391 9.46362 1.92868 8.71396 1.56538 7.83688C1.20208 6.95979 1.10702 5.99467 1.29223 5.06357C1.47744 4.13246 1.9346 3.27718 2.60589 2.60589C3.27718 1.93459 4.13246 1.47744 5.06357 1.29223C5.99468 1.10702 6.9598 1.20208 7.83688 1.56538C8.71397 1.92868 9.46362 2.54391 9.99105 3.33326C10.5185 4.12262 10.8 5.05065 10.8 6C10.8 7.27304 10.2943 8.49394 9.39411 9.39411C8.49394 10.2943 7.27304 10.8 6 10.8Z" fill="#8C8C8C"/>
</svg>
