<svg width="19" height="21" viewBox="0 0 19 21" fill="none" xmlns="http://www.w3.org/2000/svg">
<mask id="path-1-inside-1" fill="white">
<path d="M19 5.23735C19 5.21205 19 5.21205 19 5.18675C19 5.06024 18.9725 4.93373 18.9176 4.80723C18.9176 4.78193 18.9176 4.78193 18.8902 4.75663C18.8353 4.63012 18.7803 4.50361 18.6705 4.40241L18.6431 4.37711C18.5882 4.32651 18.5607 4.2759 18.5058 4.2253L14.4422 0.455422C14.1402 0.177108 13.7009 0 13.289 0H5.93064C5.02457 0 4.28324 0.683133 4.28324 1.51807V3.92169H1.6474C0.74133 3.92169 0 4.60482 0 5.43976V19.4819C0 20.3169 0.74133 21 1.6474 21H13.0694C13.9754 21 14.7168 20.3169 14.7168 19.4819V17.0783H17.3526C18.2587 17.0783 19 16.3952 19 15.5602V5.28795C19 5.28795 19 5.26265 19 5.23735ZM13.0694 19.4819H1.6474V5.43976H4.28324V15.5602C4.28324 16.3952 5.02457 17.0783 5.93064 17.0783H13.0694V19.4819ZM17.3526 15.5602H14.7168H13.0694H5.93064V5.43976V3.92169V1.51807H11.6416V1.54337V5.31325C11.6416 5.94578 12.0809 6.50241 12.685 6.73012C12.8772 6.80602 13.0694 6.83133 13.289 6.83133H17.3801V15.5602H17.3526ZM13.289 5.28795V1.54337L17.3801 5.31325H13.289V5.28795Z"/>
</mask>
<path d="M18.9176 4.80723H16.9176C16.9176 5.08121 16.9739 5.35227 17.083 5.60359L18.9176 4.80723ZM18.8902 4.75663L17.0556 5.55299C17.1666 5.80874 17.3298 6.03846 17.5349 6.22739L18.8902 4.75663ZM18.6705 4.40241L17.3152 5.87316L17.3152 5.87317L18.6705 4.40241ZM18.6431 4.37711L19.9984 2.90636L19.9984 2.90634L18.6431 4.37711ZM18.5058 4.2253L17.1455 5.69152L17.1505 5.69607L18.5058 4.2253ZM14.4422 0.455422L15.8024 -1.01079L15.7975 -1.01534L14.4422 0.455422ZM4.28324 3.92169V5.92169C5.38781 5.92169 6.28324 5.02626 6.28324 3.92169H4.28324ZM14.7168 17.0783V15.0783C13.6122 15.0783 12.7168 15.9737 12.7168 17.0783H14.7168ZM13.0694 19.4819V21.4819C14.1739 21.4819 15.0694 20.5865 15.0694 19.4819H13.0694ZM1.6474 19.4819H-0.352601C-0.352601 20.5865 0.542829 21.4819 1.6474 21.4819V19.4819ZM1.6474 5.43976V3.43976C0.542829 3.43976 -0.352601 4.33519 -0.352601 5.43976H1.6474ZM4.28324 5.43976H6.28324C6.28324 4.33519 5.38781 3.43976 4.28324 3.43976V5.43976ZM13.0694 17.0783H15.0694C15.0694 15.9737 14.1739 15.0783 13.0694 15.0783V17.0783ZM5.93064 15.5602H3.93064C3.93064 16.6648 4.82607 17.5602 5.93064 17.5602V15.5602ZM5.93064 1.51807V-0.481928C4.82607 -0.481928 3.93064 0.413503 3.93064 1.51807H5.93064ZM11.6416 1.51807H13.6416C13.6416 0.413503 12.7462 -0.481928 11.6416 -0.481928V1.51807ZM12.685 6.73012L13.4196 4.86993C13.4099 4.8661 13.4002 4.86235 13.3905 4.85868L12.685 6.73012ZM17.3801 6.83133H19.3801C19.3801 5.72676 18.4846 4.83133 17.3801 4.83133V6.83133ZM17.3801 15.5602V17.5602C18.4846 17.5602 19.3801 16.6648 19.3801 15.5602H17.3801ZM13.289 1.54337L14.6443 0.0726092C14.0604 -0.465504 13.2134 -0.607172 12.4861 -0.288376C11.7588 0.0304209 11.289 0.74929 11.289 1.54337H13.289ZM17.3801 5.31325V7.31325C18.2039 7.31325 18.9434 6.80812 19.2431 6.04074C19.5427 5.27336 19.3412 4.40075 18.7354 3.84249L17.3801 5.31325ZM13.289 5.31325H11.289C11.289 6.41782 12.1844 7.31325 13.289 7.31325V5.31325ZM21 5.23735C21 5.2373 21 5.23725 21 5.2372C21 5.23715 21 5.2371 21 5.23705C21 5.23701 21 5.23696 21 5.23691C21 5.23686 21 5.23681 21 5.23676C21 5.23671 21 5.23666 21 5.23662C21 5.23657 21 5.23652 21 5.23647C21 5.23642 21 5.23637 21 5.23633C21 5.23628 21 5.23623 21 5.23618C21 5.23613 21 5.23609 21 5.23604C21 5.23599 21 5.23594 21 5.2359C21 5.23585 21 5.2358 21 5.23575C21 5.23571 21 5.23566 21 5.23561C21 5.23556 21 5.23552 21 5.23547C21 5.23542 21 5.23538 21 5.23533C21 5.23528 21 5.23524 21 5.23519C21 5.23514 21 5.2351 21 5.23505C21 5.235 21 5.23496 21 5.23491C21 5.23486 21 5.23482 21 5.23477C21 5.23473 21 5.23468 21 5.23463C21 5.23459 21 5.23454 21 5.2345C21 5.23445 21 5.23441 21 5.23436C21 5.23431 21 5.23427 21 5.23422C21 5.23418 21 5.23413 21 5.23409C21 5.23404 21 5.234 21 5.23395C21 5.23391 21 5.23386 21 5.23382C21 5.23377 21 5.23373 21 5.23368C21 5.23364 21 5.23359 21 5.23355C21 5.23351 21 5.23346 21 5.23342C21 5.23337 21 5.23333 21 5.23328C21 5.23324 21 5.2332 21 5.23315C21 5.23311 21 5.23306 21 5.23302C21 5.23298 21 5.23293 21 5.23289C21 5.23285 21 5.2328 21 5.23276C21 5.23272 21 5.23267 21 5.23263C21 5.23259 21 5.23254 21 5.2325C21 5.23246 21 5.23241 21 5.23237C21 5.23233 21 5.23228 21 5.23224C21 5.2322 21 5.23216 21 5.23211C21 5.23207 21 5.23203 21 5.23199C21 5.23194 21 5.2319 21 5.23186C21 5.23182 21 5.23177 21 5.23173C21 5.23169 21 5.23165 21 5.23161C21 5.23156 21 5.23152 21 5.23148C21 5.23144 21 5.2314 21 5.23136C21 5.23131 21 5.23127 21 5.23123C21 5.23119 21 5.23115 21 5.23111C21 5.23106 21 5.23102 21 5.23098C21 5.23094 21 5.2309 21 5.23086C21 5.23082 21 5.23078 21 5.23074C21 5.2307 21 5.23065 21 5.23061C21 5.23057 21 5.23053 21 5.23049C21 5.23045 21 5.23041 21 5.23037C21 5.23033 21 5.23029 21 5.23025C21 5.23021 21 5.23017 21 5.23013C21 5.23009 21 5.23005 21 5.23001C21 5.22997 21 5.22993 21 5.22989C21 5.22985 21 5.22981 21 5.22977C21 5.22973 21 5.22969 21 5.22965C21 5.22961 21 5.22957 21 5.22953C21 5.22949 21 5.22945 21 5.22942C21 5.22938 21 5.22934 21 5.2293C21 5.22926 21 5.22922 21 5.22918C21 5.22914 21 5.2291 21 5.22906C21 5.22903 21 5.22899 21 5.22895C21 5.22891 21 5.22887 21 5.22883C21 5.22879 21 5.22876 21 5.22872C21 5.22868 21 5.22864 21 5.2286C21 5.22857 21 5.22853 21 5.22849C21 5.22845 21 5.22841 21 5.22837C21 5.22834 21 5.2283 21 5.22826C21 5.22822 21 5.22819 21 5.22815C21 5.22811 21 5.22807 21 5.22804C21 5.228 21 5.22796 21 5.22792C21 5.22789 21 5.22785 21 5.22781C21 5.22777 21 5.22774 21 5.2277C21 5.22766 21 5.22763 21 5.22759C21 5.22755 21 5.22752 21 5.22748C21 5.22744 21 5.22741 21 5.22737C21 5.22733 21 5.2273 21 5.22726C21 5.22722 21 5.22719 21 5.22715C21 5.22711 21 5.22708 21 5.22704C21 5.227 21 5.22697 21 5.22693C21 5.2269 21 5.22686 21 5.22682C21 5.22679 21 5.22675 21 5.22672C21 5.22668 21 5.22664 21 5.22661C21 5.22657 21 5.22654 21 5.2265C21 5.22647 21 5.22643 21 5.2264C21 5.22636 21 5.22632 21 5.22629C21 5.22625 21 5.22622 21 5.22618C21 5.22615 21 5.22611 21 5.22608C21 5.22604 21 5.22601 21 5.22597C21 5.22594 21 5.2259 21 5.22587C21 5.22583 21 5.2258 21 5.22576C21 5.22573 21 5.22569 21 5.22566C21 5.22562 21 5.22559 21 5.22556C21 5.22552 21 5.22549 21 5.22545C21 5.22542 21 5.22538 21 5.22535C21 5.22532 21 5.22528 21 5.22525C21 5.22521 21 5.22518 21 5.22514C21 5.22511 21 5.22508 21 5.22504C21 5.22501 21 5.22498 21 5.22494C21 5.22491 21 5.22487 21 5.22484C21 5.22481 21 5.22477 21 5.22474C21 5.22471 21 5.22467 21 5.22464C21 5.22461 21 5.22457 21 5.22454C21 5.22451 21 5.22447 21 5.22444C21 5.22441 21 5.22437 21 5.22434C21 5.22431 21 5.22427 21 5.22424C21 5.22421 21 5.22417 21 5.22414C21 5.22411 21 5.22408 21 5.22404C21 5.22401 21 5.22398 21 5.22395C21 5.22391 21 5.22388 21 5.22385C21 5.22382 21 5.22378 21 5.22375C21 5.22372 21 5.22369 21 5.22365C21 5.22362 21 5.22359 21 5.22356C21 5.22352 21 5.22349 21 5.22346C21 5.22343 21 5.2234 21 5.22336C21 5.22333 21 5.2233 21 5.22327C21 5.22324 21 5.2232 21 5.22317C21 5.22314 21 5.22311 21 5.22308C21 5.22305 21 5.22301 21 5.22298C21 5.22295 21 5.22292 21 5.22289C21 5.22286 21 5.22283 21 5.22279C21 5.22276 21 5.22273 21 5.2227C21 5.22267 21 5.22264 21 5.22261C21 5.22258 21 5.22254 21 5.22251C21 5.22248 21 5.22245 21 5.22242C21 5.22239 21 5.22236 21 5.22233C21 5.2223 21 5.22227 21 5.22223C21 5.2222 21 5.22217 21 5.22214C21 5.22211 21 5.22208 21 5.22205C21 5.22202 21 5.22199 21 5.22196C21 5.22193 21 5.2219 21 5.22187C21 5.22184 21 5.22181 21 5.22178C21 5.22175 21 5.22172 21 5.22169C21 5.22165 21 5.22162 21 5.22159C21 5.22156 21 5.22153 21 5.2215C21 5.22147 21 5.22144 21 5.22141C21 5.22138 21 5.22135 21 5.22132C21 5.22129 21 5.22126 21 5.22124C21 5.22121 21 5.22118 21 5.22115C21 5.22112 21 5.22109 21 5.22106C21 5.22103 21 5.221 21 5.22097C21 5.22094 21 5.22091 21 5.22088C21 5.22085 21 5.22082 21 5.22079C21 5.22076 21 5.22073 21 5.2207C21 5.22067 21 5.22065 21 5.22062C21 5.22059 21 5.22056 21 5.22053C21 5.2205 21 5.22047 21 5.22044C21 5.22041 21 5.22038 21 5.22035C21 5.22033 21 5.2203 21 5.22027C21 5.22024 21 5.22021 21 5.22018C21 5.22015 21 5.22012 21 5.2201C21 5.22007 21 5.22004 21 5.22001C21 5.21998 21 5.21995 21 5.21992C21 5.21989 21 5.21987 21 5.21984C21 5.21981 21 5.21978 21 5.21975C21 5.21972 21 5.2197 21 5.21967C21 5.21964 21 5.21961 21 5.21958C21 5.21955 21 5.21953 21 5.2195C21 5.21947 21 5.21944 21 5.21941C21 5.21939 21 5.21936 21 5.21933C21 5.2193 21 5.21927 21 5.21924C21 5.21922 21 5.21919 21 5.21916C21 5.21913 21 5.21911 21 5.21908C21 5.21905 21 5.21902 21 5.21899C21 5.21897 21 5.21894 21 5.21891C21 5.21888 21 5.21886 21 5.21883C21 5.2188 21 5.21877 21 5.21875C21 5.21872 21 5.21869 21 5.21866C21 5.21864 21 5.21861 21 5.21858C21 5.21855 21 5.21853 21 5.2185C21 5.21847 21 5.21844 21 5.21842C21 5.21839 21 5.21836 21 5.21833C21 5.21831 21 5.21828 21 5.21825C21 5.21823 21 5.2182 21 5.21817C21 5.21814 21 5.21812 21 5.21809C21 5.21806 21 5.21804 21 5.21801C21 5.21798 21 5.21796 21 5.21793C21 5.2179 21 5.21787 21 5.21785C21 5.21782 21 5.21779 21 5.21777C21 5.21774 21 5.21771 21 5.21769C21 5.21766 21 5.21763 21 5.21761C21 5.21758 21 5.21755 21 5.21753C21 5.2175 21 5.21747 21 5.21745C21 5.21742 21 5.21739 21 5.21737C21 5.21734 21 5.21731 21 5.21729C21 5.21726 21 5.21723 21 5.21721C21 5.21718 21 5.21715 21 5.21713C21 5.2171 21 5.21708 21 5.21705C21 5.21702 21 5.217 21 5.21697C21 5.21694 21 5.21692 21 5.21689C21 5.21687 21 5.21684 21 5.21681C21 5.21679 21 5.21676 21 5.21673C21 5.21671 21 5.21668 21 5.21666C21 5.21663 21 5.2166 21 5.21658C21 5.21655 21 5.21653 21 5.2165C21 5.21647 21 5.21645 21 5.21642C21 5.21639 21 5.21637 21 5.21634C21 5.21632 21 5.21629 21 5.21627C21 5.21624 21 5.21621 21 5.21619C21 5.21616 21 5.21614 21 5.21611C21 5.21608 21 5.21606 21 5.21603C21 5.21601 21 5.21598 21 5.21596C21 5.21593 21 5.2159 21 5.21588C21 5.21585 21 5.21583 21 5.2158C21 5.21578 21 5.21575 21 5.21572C21 5.2157 21 5.21567 21 5.21565C21 5.21562 21 5.2156 21 5.21557C21 5.21555 21 5.21552 21 5.21549C21 5.21547 21 5.21544 21 5.21542C21 5.21539 21 5.21537 21 5.21534C21 5.21532 21 5.21529 21 5.21527C21 5.21524 21 5.21521 21 5.21519C21 5.21516 21 5.21514 21 5.21511C21 5.21509 21 5.21506 21 5.21504C21 5.21501 21 5.21499 21 5.21496C21 5.21494 21 5.21491 21 5.21489C21 5.21486 21 5.21484 21 5.21481C21 5.21478 21 5.21476 21 5.21473C21 5.21471 21 5.21468 21 5.21466C21 5.21463 21 5.21461 21 5.21458C21 5.21456 21 5.21453 21 5.21451C21 5.21448 21 5.21446 21 5.21443C21 5.21441 21 5.21438 21 5.21436C21 5.21433 21 5.21431 21 5.21428C21 5.21426 21 5.21423 21 5.21421C21 5.21418 21 5.21416 21 5.21413C21 5.21411 21 5.21408 21 5.21406C21 5.21403 21 5.21401 21 5.21398C21 5.21396 21 5.21393 21 5.21391C21 5.21388 21 5.21386 21 5.21383C21 5.21381 21 5.21378 21 5.21376C21 5.21373 21 5.21371 21 5.21368C21 5.21366 21 5.21363 21 5.21361C21 5.21358 21 5.21356 21 5.21353C21 5.21351 21 5.21348 21 5.21346C21 5.21343 21 5.21341 21 5.21338C21 5.21336 21 5.21334 21 5.21331C21 5.21329 21 5.21326 21 5.21324C21 5.21321 21 5.21319 21 5.21316C21 5.21314 21 5.21311 21 5.21309C21 5.21306 21 5.21304 21 5.21301C21 5.21299 21 5.21296 21 5.21294C21 5.21291 21 5.21289 21 5.21286C21 5.21284 21 5.21281 21 5.21279C21 5.21277 21 5.21274 21 5.21272C21 5.21269 21 5.21267 21 5.21264C21 5.21262 21 5.21259 21 5.21257C21 5.21254 21 5.21252 21 5.21249C21 5.21247 21 5.21244 21 5.21242C21 5.21239 21 5.21237 21 5.21234C21 5.21232 21 5.2123 21 5.21227C21 5.21225 21 5.21222 21 5.2122C21 5.21217 21 5.21215 21 5.21212C21 5.2121 21 5.21207 21 5.21205C21 5.21202 21 5.212 21 5.21197C21 5.21195 21 5.21192 21 5.2119C21 5.21188 21 5.21185 21 5.21183C21 5.2118 21 5.21178 21 5.21175C21 5.21173 21 5.2117 21 5.21168C21 5.21165 21 5.21163 21 5.2116C21 5.21158 21 5.21155 21 5.21153C21 5.2115 21 5.21148 21 5.21145C21 5.21143 21 5.21141 21 5.21138C21 5.21136 21 5.21133 21 5.21131C21 5.21128 21 5.21126 21 5.21123C21 5.21121 21 5.21118 21 5.21116C21 5.21113 21 5.21111 21 5.21108C21 5.21106 21 5.21103 21 5.21101C21 5.21098 21 5.21096 21 5.21094C21 5.21091 21 5.21089 21 5.21086C21 5.21084 21 5.21081 21 5.21079C21 5.21076 21 5.21074 21 5.21071C21 5.21069 21 5.21066 21 5.21064C21 5.21061 21 5.21059 21 5.21056C21 5.21054 21 5.21051 21 5.21049C21 5.21046 21 5.21044 21 5.21041C21 5.21039 21 5.21036 21 5.21034C21 5.21031 21 5.21029 21 5.21026C21 5.21024 21 5.21021 21 5.21019C21 5.21016 21 5.21014 21 5.21011C21 5.21009 21 5.21006 21 5.21004C21 5.21001 21 5.20999 21 5.20996C21 5.20994 21 5.20991 21 5.20989C21 5.20986 21 5.20984 21 5.20981C21 5.20979 21 5.20976 21 5.20974C21 5.20971 21 5.20969 21 5.20966C21 5.20964 21 5.20961 21 5.20959C21 5.20956 21 5.20954 21 5.20951C21 5.20949 21 5.20946 21 5.20944C21 5.20941 21 5.20939 21 5.20936C21 5.20934 21 5.20931 21 5.20929C21 5.20926 21 5.20924 21 5.20921C21 5.20919 21 5.20916 21 5.20914C21 5.20911 21 5.20908 21 5.20906C21 5.20903 21 5.20901 21 5.20898C21 5.20896 21 5.20893 21 5.20891C21 5.20888 21 5.20886 21 5.20883C21 5.20881 21 5.20878 21 5.20875C21 5.20873 21 5.2087 21 5.20868C21 5.20865 21 5.20863 21 5.2086C21 5.20858 21 5.20855 21 5.20853C21 5.2085 21 5.20847 21 5.20845C21 5.20842 21 5.2084 21 5.20837C21 5.20835 21 5.20832 21 5.20829C21 5.20827 21 5.20824 21 5.20822C21 5.20819 21 5.20817 21 5.20814C21 5.20812 21 5.20809 21 5.20806C21 5.20804 21 5.20801 21 5.20799C21 5.20796 21 5.20793 21 5.20791C21 5.20788 21 5.20786 21 5.20783C21 5.20781 21 5.20778 21 5.20775C21 5.20773 21 5.2077 21 5.20768C21 5.20765 21 5.20762 21 5.2076C21 5.20757 21 5.20755 21 5.20752C21 5.20749 21 5.20747 21 5.20744C21 5.20742 21 5.20739 21 5.20736C21 5.20734 21 5.20731 21 5.20728C21 5.20726 21 5.20723 21 5.20721C21 5.20718 21 5.20715 21 5.20713C21 5.2071 21 5.20707 21 5.20705C21 5.20702 21 5.207 21 5.20697C21 5.20694 21 5.20692 21 5.20689C21 5.20686 21 5.20684 21 5.20681C21 5.20678 21 5.20676 21 5.20673C21 5.2067 21 5.20668 21 5.20665C21 5.20662 21 5.2066 21 5.20657C21 5.20654 21 5.20652 21 5.20649C21 5.20646 21 5.20644 21 5.20641C21 5.20638 21 5.20636 21 5.20633C21 5.2063 21 5.20628 21 5.20625C21 5.20622 21 5.2062 21 5.20617C21 5.20614 21 5.20611 21 5.20609C21 5.20606 21 5.20603 21 5.20601C21 5.20598 21 5.20595 21 5.20593C21 5.2059 21 5.20587 21 5.20584C21 5.20582 21 5.20579 21 5.20576C21 5.20573 21 5.20571 21 5.20568C21 5.20565 21 5.20563 21 5.2056C21 5.20557 21 5.20554 21 5.20552C21 5.20549 21 5.20546 21 5.20543C21 5.20541 21 5.20538 21 5.20535C21 5.20532 21 5.2053 21 5.20527C21 5.20524 21 5.20521 21 5.20519C21 5.20516 21 5.20513 21 5.2051C21 5.20507 21 5.20505 21 5.20502C21 5.20499 21 5.20496 21 5.20494C21 5.20491 21 5.20488 21 5.20485C21 5.20482 21 5.2048 21 5.20477C21 5.20474 21 5.20471 21 5.20468C21 5.20466 21 5.20463 21 5.2046C21 5.20457 21 5.20454 21 5.20451C21 5.20449 21 5.20446 21 5.20443C21 5.2044 21 5.20437 21 5.20434C21 5.20432 21 5.20429 21 5.20426C21 5.20423 21 5.2042 21 5.20417C21 5.20414 21 5.20412 21 5.20409C21 5.20406 21 5.20403 21 5.204C21 5.20397 21 5.20394 21 5.20392C21 5.20389 21 5.20386 21 5.20383C21 5.2038 21 5.20377 21 5.20374C21 5.20371 21 5.20368 21 5.20366C21 5.20363 21 5.2036 21 5.20357C21 5.20354 21 5.20351 21 5.20348C21 5.20345 21 5.20342 21 5.20339C21 5.20336 21 5.20333 21 5.2033C21 5.20328 21 5.20325 21 5.20322C21 5.20319 21 5.20316 21 5.20313C21 5.2031 21 5.20307 21 5.20304C21 5.20301 21 5.20298 21 5.20295C21 5.20292 21 5.20289 21 5.20286C21 5.20283 21 5.2028 21 5.20277C21 5.20274 21 5.20271 21 5.20268C21 5.20265 21 5.20262 21 5.20259C21 5.20256 21 5.20253 21 5.2025C21 5.20247 21 5.20244 21 5.20241C21 5.20238 21 5.20235 21 5.20232C21 5.20229 21 5.20226 21 5.20223C21 5.2022 21 5.20217 21 5.20214C21 5.20211 21 5.20208 21 5.20205C21 5.20202 21 5.20198 21 5.20195C21 5.20192 21 5.20189 21 5.20186C21 5.20183 21 5.2018 21 5.20177C21 5.20174 21 5.20171 21 5.20168C21 5.20165 21 5.20161 21 5.20158C21 5.20155 21 5.20152 21 5.20149C21 5.20146 21 5.20143 21 5.2014C21 5.20137 21 5.20133 21 5.2013C21 5.20127 21 5.20124 21 5.20121C21 5.20118 21 5.20115 21 5.20111C21 5.20108 21 5.20105 21 5.20102C21 5.20099 21 5.20096 21 5.20092C21 5.20089 21 5.20086 21 5.20083C21 5.2008 21 5.20076 21 5.20073C21 5.2007 21 5.20067 21 5.20064C21 5.2006 21 5.20057 21 5.20054C21 5.20051 21 5.20048 21 5.20044C21 5.20041 21 5.20038 21 5.20035C21 5.20031 21 5.20028 21 5.20025C21 5.20022 21 5.20018 21 5.20015C21 5.20012 21 5.20009 21 5.20005C21 5.20002 21 5.19999 21 5.19995C21 5.19992 21 5.19989 21 5.19986C21 5.19982 21 5.19979 21 5.19976C21 5.19972 21 5.19969 21 5.19966C21 5.19962 21 5.19959 21 5.19956C21 5.19952 21 5.19949 21 5.19946C21 5.19942 21 5.19939 21 5.19936C21 5.19932 21 5.19929 21 5.19926C21 5.19922 21 5.19919 21 5.19915C21 5.19912 21 5.19909 21 5.19905C21 5.19902 21 5.19899 21 5.19895C21 5.19892 21 5.19888 21 5.19885C21 5.19882 21 5.19878 21 5.19875C21 5.19871 21 5.19868 21 5.19864C21 5.19861 21 5.19858 21 5.19854C21 5.19851 21 5.19847 21 5.19844C21 5.1984 21 5.19837 21 5.19833C21 5.1983 21 5.19826 21 5.19823C21 5.19819 21 5.19816 21 5.19812C21 5.19809 21 5.19805 21 5.19802C21 5.19798 21 5.19795 21 5.19791C21 5.19788 21 5.19784 21 5.19781C21 5.19777 21 5.19774 21 5.1977C21 5.19767 21 5.19763 21 5.19759C21 5.19756 21 5.19752 21 5.19749C21 5.19745 21 5.19742 21 5.19738C21 5.19734 21 5.19731 21 5.19727C21 5.19724 21 5.1972 21 5.19716C21 5.19713 21 5.19709 21 5.19706C21 5.19702 21 5.19698 21 5.19695C21 5.19691 21 5.19687 21 5.19684C21 5.1968 21 5.19676 21 5.19673C21 5.19669 21 5.19665 21 5.19662C21 5.19658 21 5.19654 21 5.19651C21 5.19647 21 5.19643 21 5.1964C21 5.19636 21 5.19632 21 5.19628C21 5.19625 21 5.19621 21 5.19617C21 5.19614 21 5.1961 21 5.19606C21 5.19602 21 5.19599 21 5.19595C21 5.19591 21 5.19587 21 5.19584C21 5.1958 21 5.19576 21 5.19572C21 5.19568 21 5.19565 21 5.19561C21 5.19557 21 5.19553 21 5.19549C21 5.19546 21 5.19542 21 5.19538C21 5.19534 21 5.1953 21 5.19526C21 5.19523 21 5.19519 21 5.19515C21 5.19511 21 5.19507 21 5.19503C21 5.19499 21 5.19495 21 5.19492C21 5.19488 21 5.19484 21 5.1948C21 5.19476 21 5.19472 21 5.19468C21 5.19464 21 5.1946 21 5.19456C21 5.19452 21 5.19448 21 5.19445C21 5.19441 21 5.19437 21 5.19433C21 5.19429 21 5.19425 21 5.19421C21 5.19417 21 5.19413 21 5.19409C21 5.19405 21 5.19401 21 5.19397C21 5.19393 21 5.19389 21 5.19385C21 5.19381 21 5.19377 21 5.19373C21 5.19369 21 5.19365 21 5.1936C21 5.19356 21 5.19352 21 5.19348C21 5.19344 21 5.1934 21 5.19336C21 5.19332 21 5.19328 21 5.19324C21 5.1932 21 5.19316 21 5.19311C21 5.19307 21 5.19303 21 5.19299C21 5.19295 21 5.19291 21 5.19287C21 5.19282 21 5.19278 21 5.19274C21 5.1927 21 5.19266 21 5.19262C21 5.19257 21 5.19253 21 5.19249C21 5.19245 21 5.19241 21 5.19236C21 5.19232 21 5.19228 21 5.19224C21 5.1922 21 5.19215 21 5.19211C21 5.19207 21 5.19203 21 5.19198C21 5.19194 21 5.1919 21 5.19185C21 5.19181 21 5.19177 21 5.19173C21 5.19168 21 5.19164 21 5.1916C21 5.19155 21 5.19151 21 5.19147C21 5.19142 21 5.19138 21 5.19134C21 5.19129 21 5.19125 21 5.19121C21 5.19116 21 5.19112 21 5.19108C21 5.19103 21 5.19099 21 5.19094C21 5.1909 21 5.19086 21 5.19081C21 5.19077 21 5.19072 21 5.19068C21 5.19064 21 5.19059 21 5.19055C21 5.1905 21 5.19046 21 5.19041C21 5.19037 21 5.19032 21 5.19028C21 5.19023 21 5.19019 21 5.19014C21 5.1901 21 5.19005 21 5.19001C21 5.18996 21 5.18992 21 5.18987C21 5.18983 21 5.18978 21 5.18974C21 5.18969 21 5.18964 21 5.1896C21 5.18955 21 5.18951 21 5.18946C21 5.18942 21 5.18937 21 5.18932C21 5.18928 21 5.18923 21 5.18919C21 5.18914 21 5.18909 21 5.18905C21 5.189 21 5.18895 21 5.18891C21 5.18886 21 5.18881 21 5.18877C21 5.18872 21 5.18867 21 5.18863C21 5.18858 21 5.18853 21 5.18849C21 5.18844 21 5.18839 21 5.18834C21 5.1883 21 5.18825 21 5.1882C21 5.18815 21 5.18811 21 5.18806C21 5.18801 21 5.18796 21 5.18791C21 5.18787 21 5.18782 21 5.18777C21 5.18772 21 5.18767 21 5.18763C21 5.18758 21 5.18753 21 5.18748C21 5.18743 21 5.18738 21 5.18734C21 5.18729 21 5.18724 21 5.18719C21 5.18714 21 5.18709 21 5.18704C21 5.18699 21 5.18694 21 5.18689C21 5.18685 21 5.1868 21 5.18675H17C17 5.1868 17 5.18685 17 5.18689C17 5.18694 17 5.18699 17 5.18704C17 5.18709 17 5.18714 17 5.18719C17 5.18724 17 5.18729 17 5.18734C17 5.18738 17 5.18743 17 5.18748C17 5.18753 17 5.18758 17 5.18763C17 5.18767 17 5.18772 17 5.18777C17 5.18782 17 5.18787 17 5.18791C17 5.18796 17 5.18801 17 5.18806C17 5.18811 17 5.18815 17 5.1882C17 5.18825 17 5.1883 17 5.18834C17 5.18839 17 5.18844 17 5.18849C17 5.18853 17 5.18858 17 5.18863C17 5.18867 17 5.18872 17 5.18877C17 5.18881 17 5.18886 17 5.18891C17 5.18895 17 5.189 17 5.18905C17 5.18909 17 5.18914 17 5.18919C17 5.18923 17 5.18928 17 5.18932C17 5.18937 17 5.18942 17 5.18946C17 5.18951 17 5.18955 17 5.1896C17 5.18964 17 5.18969 17 5.18974C17 5.18978 17 5.18983 17 5.18987C17 5.18992 17 5.18996 17 5.19001C17 5.19005 17 5.1901 17 5.19014C17 5.19019 17 5.19023 17 5.19028C17 5.19032 17 5.19037 17 5.19041C17 5.19046 17 5.1905 17 5.19055C17 5.19059 17 5.19064 17 5.19068C17 5.19072 17 5.19077 17 5.19081C17 5.19086 17 5.1909 17 5.19094C17 5.19099 17 5.19103 17 5.19108C17 5.19112 17 5.19116 17 5.19121C17 5.19125 17 5.19129 17 5.19134C17 5.19138 17 5.19142 17 5.19147C17 5.19151 17 5.19155 17 5.1916C17 5.19164 17 5.19168 17 5.19173C17 5.19177 17 5.19181 17 5.19185C17 5.1919 17 5.19194 17 5.19198C17 5.19203 17 5.19207 17 5.19211C17 5.19215 17 5.1922 17 5.19224C17 5.19228 17 5.19232 17 5.19236C17 5.19241 17 5.19245 17 5.19249C17 5.19253 17 5.19257 17 5.19262C17 5.19266 17 5.1927 17 5.19274C17 5.19278 17 5.19282 17 5.19287C17 5.19291 17 5.19295 17 5.19299C17 5.19303 17 5.19307 17 5.19311C17 5.19316 17 5.1932 17 5.19324C17 5.19328 17 5.19332 17 5.19336C17 5.1934 17 5.19344 17 5.19348C17 5.19352 17 5.19356 17 5.1936C17 5.19365 17 5.19369 17 5.19373C17 5.19377 17 5.19381 17 5.19385C17 5.19389 17 5.19393 17 5.19397C17 5.19401 17 5.19405 17 5.19409C17 5.19413 17 5.19417 17 5.19421C17 5.19425 17 5.19429 17 5.19433C17 5.19437 17 5.19441 17 5.19445C17 5.19448 17 5.19452 17 5.19456C17 5.1946 17 5.19464 17 5.19468C17 5.19472 17 5.19476 17 5.1948C17 5.19484 17 5.19488 17 5.19492C17 5.19495 17 5.19499 17 5.19503C17 5.19507 17 5.19511 17 5.19515C17 5.19519 17 5.19523 17 5.19526C17 5.1953 17 5.19534 17 5.19538C17 5.19542 17 5.19546 17 5.19549C17 5.19553 17 5.19557 17 5.19561C17 5.19565 17 5.19568 17 5.19572C17 5.19576 17 5.1958 17 5.19584C17 5.19587 17 5.19591 17 5.19595C17 5.19599 17 5.19602 17 5.19606C17 5.1961 17 5.19614 17 5.19617C17 5.19621 17 5.19625 17 5.19628C17 5.19632 17 5.19636 17 5.1964C17 5.19643 17 5.19647 17 5.19651C17 5.19654 17 5.19658 17 5.19662C17 5.19665 17 5.19669 17 5.19673C17 5.19676 17 5.1968 17 5.19684C17 5.19687 17 5.19691 17 5.19695C17 5.19698 17 5.19702 17 5.19706C17 5.19709 17 5.19713 17 5.19716C17 5.1972 17 5.19724 17 5.19727C17 5.19731 17 5.19734 17 5.19738C17 5.19742 17 5.19745 17 5.19749C17 5.19752 17 5.19756 17 5.19759C17 5.19763 17 5.19767 17 5.1977C17 5.19774 17 5.19777 17 5.19781C17 5.19784 17 5.19788 17 5.19791C17 5.19795 17 5.19798 17 5.19802C17 5.19805 17 5.19809 17 5.19812C17 5.19816 17 5.19819 17 5.19823C17 5.19826 17 5.1983 17 5.19833C17 5.19837 17 5.1984 17 5.19844C17 5.19847 17 5.19851 17 5.19854C17 5.19858 17 5.19861 17 5.19864C17 5.19868 17 5.19871 17 5.19875C17 5.19878 17 5.19882 17 5.19885C17 5.19888 17 5.19892 17 5.19895C17 5.19899 17 5.19902 17 5.19905C17 5.19909 17 5.19912 17 5.19915C17 5.19919 17 5.19922 17 5.19926C17 5.19929 17 5.19932 17 5.19936C17 5.19939 17 5.19942 17 5.19946C17 5.19949 17 5.19952 17 5.19956C17 5.19959 17 5.19962 17 5.19966C17 5.19969 17 5.19972 17 5.19976C17 5.19979 17 5.19982 17 5.19986C17 5.19989 17 5.19992 17 5.19995C17 5.19999 17 5.20002 17 5.20005C17 5.20009 17 5.20012 17 5.20015C17 5.20018 17 5.20022 17 5.20025C17 5.20028 17 5.20031 17 5.20035C17 5.20038 17 5.20041 17 5.20044C17 5.20048 17 5.20051 17 5.20054C17 5.20057 17 5.2006 17 5.20064C17 5.20067 17 5.2007 17 5.20073C17 5.20076 17 5.2008 17 5.20083C17 5.20086 17 5.20089 17 5.20092C17 5.20096 17 5.20099 17 5.20102C17 5.20105 17 5.20108 17 5.20111C17 5.20115 17 5.20118 17 5.20121C17 5.20124 17 5.20127 17 5.2013C17 5.20133 17 5.20137 17 5.2014C17 5.20143 17 5.20146 17 5.20149C17 5.20152 17 5.20155 17 5.20158C17 5.20161 17 5.20165 17 5.20168C17 5.20171 17 5.20174 17 5.20177C17 5.2018 17 5.20183 17 5.20186C17 5.20189 17 5.20192 17 5.20195C17 5.20198 17 5.20202 17 5.20205C17 5.20208 17 5.20211 17 5.20214C17 5.20217 17 5.2022 17 5.20223C17 5.20226 17 5.20229 17 5.20232C17 5.20235 17 5.20238 17 5.20241C17 5.20244 17 5.20247 17 5.2025C17 5.20253 17 5.20256 17 5.20259C17 5.20262 17 5.20265 17 5.20268C17 5.20271 17 5.20274 17 5.20277C17 5.2028 17 5.20283 17 5.20286C17 5.20289 17 5.20292 17 5.20295C17 5.20298 17 5.20301 17 5.20304C17 5.20307 17 5.2031 17 5.20313C17 5.20316 17 5.20319 17 5.20322C17 5.20325 17 5.20328 17 5.2033C17 5.20333 17 5.20336 17 5.20339C17 5.20342 17 5.20345 17 5.20348C17 5.20351 17 5.20354 17 5.20357C17 5.2036 17 5.20363 17 5.20366C17 5.20368 17 5.20371 17 5.20374C17 5.20377 17 5.2038 17 5.20383C17 5.20386 17 5.20389 17 5.20392C17 5.20394 17 5.20397 17 5.204C17 5.20403 17 5.20406 17 5.20409C17 5.20412 17 5.20414 17 5.20417C17 5.2042 17 5.20423 17 5.20426C17 5.20429 17 5.20432 17 5.20434C17 5.20437 17 5.2044 17 5.20443C17 5.20446 17 5.20449 17 5.20451C17 5.20454 17 5.20457 17 5.2046C17 5.20463 17 5.20466 17 5.20468C17 5.20471 17 5.20474 17 5.20477C17 5.2048 17 5.20482 17 5.20485C17 5.20488 17 5.20491 17 5.20494C17 5.20496 17 5.20499 17 5.20502C17 5.20505 17 5.20507 17 5.2051C17 5.20513 17 5.20516 17 5.20519C17 5.20521 17 5.20524 17 5.20527C17 5.2053 17 5.20532 17 5.20535C17 5.20538 17 5.20541 17 5.20543C17 5.20546 17 5.20549 17 5.20552C17 5.20554 17 5.20557 17 5.2056C17 5.20563 17 5.20565 17 5.20568C17 5.20571 17 5.20573 17 5.20576C17 5.20579 17 5.20582 17 5.20584C17 5.20587 17 5.2059 17 5.20593C17 5.20595 17 5.20598 17 5.20601C17 5.20603 17 5.20606 17 5.20609C17 5.20611 17 5.20614 17 5.20617C17 5.2062 17 5.20622 17 5.20625C17 5.20628 17 5.2063 17 5.20633C17 5.20636 17 5.20638 17 5.20641C17 5.20644 17 5.20646 17 5.20649C17 5.20652 17 5.20654 17 5.20657C17 5.2066 17 5.20662 17 5.20665C17 5.20668 17 5.2067 17 5.20673C17 5.20676 17 5.20678 17 5.20681C17 5.20684 17 5.20686 17 5.20689C17 5.20692 17 5.20694 17 5.20697C17 5.207 17 5.20702 17 5.20705C17 5.20707 17 5.2071 17 5.20713C17 5.20715 17 5.20718 17 5.20721C17 5.20723 17 5.20726 17 5.20728C17 5.20731 17 5.20734 17 5.20736C17 5.20739 17 5.20742 17 5.20744C17 5.20747 17 5.20749 17 5.20752C17 5.20755 17 5.20757 17 5.2076C17 5.20762 17 5.20765 17 5.20768C17 5.2077 17 5.20773 17 5.20775C17 5.20778 17 5.20781 17 5.20783C17 5.20786 17 5.20788 17 5.20791C17 5.20793 17 5.20796 17 5.20799C17 5.20801 17 5.20804 17 5.20806C17 5.20809 17 5.20812 17 5.20814C17 5.20817 17 5.20819 17 5.20822C17 5.20824 17 5.20827 17 5.20829C17 5.20832 17 5.20835 17 5.20837C17 5.2084 17 5.20842 17 5.20845C17 5.20847 17 5.2085 17 5.20853C17 5.20855 17 5.20858 17 5.2086C17 5.20863 17 5.20865 17 5.20868C17 5.2087 17 5.20873 17 5.20875C17 5.20878 17 5.20881 17 5.20883C17 5.20886 17 5.20888 17 5.20891C17 5.20893 17 5.20896 17 5.20898C17 5.20901 17 5.20903 17 5.20906C17 5.20908 17 5.20911 17 5.20914C17 5.20916 17 5.20919 17 5.20921C17 5.20924 17 5.20926 17 5.20929C17 5.20931 17 5.20934 17 5.20936C17 5.20939 17 5.20941 17 5.20944C17 5.20946 17 5.20949 17 5.20951C17 5.20954 17 5.20956 17 5.20959C17 5.20961 17 5.20964 17 5.20966C17 5.20969 17 5.20971 17 5.20974C17 5.20976 17 5.20979 17 5.20981C17 5.20984 17 5.20986 17 5.20989C17 5.20991 17 5.20994 17 5.20996C17 5.20999 17 5.21001 17 5.21004C17 5.21006 17 5.21009 17 5.21011C17 5.21014 17 5.21016 17 5.21019C17 5.21021 17 5.21024 17 5.21026C17 5.21029 17 5.21031 17 5.21034C17 5.21036 17 5.21039 17 5.21041C17 5.21044 17 5.21046 17 5.21049C17 5.21051 17 5.21054 17 5.21056C17 5.21059 17 5.21061 17 5.21064C17 5.21066 17 5.21069 17 5.21071C17 5.21074 17 5.21076 17 5.21079C17 5.21081 17 5.21084 17 5.21086C17 5.21089 17 5.21091 17 5.21094C17 5.21096 17 5.21098 17 5.21101C17 5.21103 17 5.21106 17 5.21108C17 5.21111 17 5.21113 17 5.21116C17 5.21118 17 5.21121 17 5.21123C17 5.21126 17 5.21128 17 5.21131C17 5.21133 17 5.21136 17 5.21138C17 5.21141 17 5.21143 17 5.21145C17 5.21148 17 5.2115 17 5.21153C17 5.21155 17 5.21158 17 5.2116C17 5.21163 17 5.21165 17 5.21168C17 5.2117 17 5.21173 17 5.21175C17 5.21178 17 5.2118 17 5.21183C17 5.21185 17 5.21188 17 5.2119C17 5.21192 17 5.21195 17 5.21197C17 5.212 17 5.21202 17 5.21205C17 5.21207 17 5.2121 17 5.21212C17 5.21215 17 5.21217 17 5.2122C17 5.21222 17 5.21225 17 5.21227C17 5.2123 17 5.21232 17 5.21234C17 5.21237 17 5.21239 17 5.21242C17 5.21244 17 5.21247 17 5.21249C17 5.21252 17 5.21254 17 5.21257C17 5.21259 17 5.21262 17 5.21264C17 5.21267 17 5.21269 17 5.21272C17 5.21274 17 5.21277 17 5.21279C17 5.21281 17 5.21284 17 5.21286C17 5.21289 17 5.21291 17 5.21294C17 5.21296 17 5.21299 17 5.21301C17 5.21304 17 5.21306 17 5.21309C17 5.21311 17 5.21314 17 5.21316C17 5.21319 17 5.21321 17 5.21324C17 5.21326 17 5.21329 17 5.21331C17 5.21334 17 5.21336 17 5.21338C17 5.21341 17 5.21343 17 5.21346C17 5.21348 17 5.21351 17 5.21353C17 5.21356 17 5.21358 17 5.21361C17 5.21363 17 5.21366 17 5.21368C17 5.21371 17 5.21373 17 5.21376C17 5.21378 17 5.21381 17 5.21383C17 5.21386 17 5.21388 17 5.21391C17 5.21393 17 5.21396 17 5.21398C17 5.21401 17 5.21403 17 5.21406C17 5.21408 17 5.21411 17 5.21413C17 5.21416 17 5.21418 17 5.21421C17 5.21423 17 5.21426 17 5.21428C17 5.21431 17 5.21433 17 5.21436C17 5.21438 17 5.21441 17 5.21443C17 5.21446 17 5.21448 17 5.21451C17 5.21453 17 5.21456 17 5.21458C17 5.21461 17 5.21463 17 5.21466C17 5.21468 17 5.21471 17 5.21473C17 5.21476 17 5.21478 17 5.21481C17 5.21484 17 5.21486 17 5.21489C17 5.21491 17 5.21494 17 5.21496C17 5.21499 17 5.21501 17 5.21504C17 5.21506 17 5.21509 17 5.21511C17 5.21514 17 5.21516 17 5.21519C17 5.21521 17 5.21524 17 5.21527C17 5.21529 17 5.21532 17 5.21534C17 5.21537 17 5.21539 17 5.21542C17 5.21544 17 5.21547 17 5.21549C17 5.21552 17 5.21555 17 5.21557C17 5.2156 17 5.21562 17 5.21565C17 5.21567 17 5.2157 17 5.21572C17 5.21575 17 5.21578 17 5.2158C17 5.21583 17 5.21585 17 5.21588C17 5.2159 17 5.21593 17 5.21596C17 5.21598 17 5.21601 17 5.21603C17 5.21606 17 5.21608 17 5.21611C17 5.21614 17 5.21616 17 5.21619C17 5.21621 17 5.21624 17 5.21627C17 5.21629 17 5.21632 17 5.21634C17 5.21637 17 5.21639 17 5.21642C17 5.21645 17 5.21647 17 5.2165C17 5.21653 17 5.21655 17 5.21658C17 5.2166 17 5.21663 17 5.21666C17 5.21668 17 5.21671 17 5.21673C17 5.21676 17 5.21679 17 5.21681C17 5.21684 17 5.21687 17 5.21689C17 5.21692 17 5.21694 17 5.21697C17 5.217 17 5.21702 17 5.21705C17 5.21708 17 5.2171 17 5.21713C17 5.21715 17 5.21718 17 5.21721C17 5.21723 17 5.21726 17 5.21729C17 5.21731 17 5.21734 17 5.21737C17 5.21739 17 5.21742 17 5.21745C17 5.21747 17 5.2175 17 5.21753C17 5.21755 17 5.21758 17 5.21761C17 5.21763 17 5.21766 17 5.21769C17 5.21771 17 5.21774 17 5.21777C17 5.21779 17 5.21782 17 5.21785C17 5.21787 17 5.2179 17 5.21793C17 5.21796 17 5.21798 17 5.21801C17 5.21804 17 5.21806 17 5.21809C17 5.21812 17 5.21814 17 5.21817C17 5.2182 17 5.21823 17 5.21825C17 5.21828 17 5.21831 17 5.21833C17 5.21836 17 5.21839 17 5.21842C17 5.21844 17 5.21847 17 5.2185C17 5.21853 17 5.21855 17 5.21858C17 5.21861 17 5.21864 17 5.21866C17 5.21869 17 5.21872 17 5.21875C17 5.21877 17 5.2188 17 5.21883C17 5.21886 17 5.21888 17 5.21891C17 5.21894 17 5.21897 17 5.21899C17 5.21902 17 5.21905 17 5.21908C17 5.21911 17 5.21913 17 5.21916C17 5.21919 17 5.21922 17 5.21924C17 5.21927 17 5.2193 17 5.21933C17 5.21936 17 5.21939 17 5.21941C17 5.21944 17 5.21947 17 5.2195C17 5.21953 17 5.21955 17 5.21958C17 5.21961 17 5.21964 17 5.21967C17 5.2197 17 5.21972 17 5.21975C17 5.21978 17 5.21981 17 5.21984C17 5.21987 17 5.21989 17 5.21992C17 5.21995 17 5.21998 17 5.22001C17 5.22004 17 5.22007 17 5.2201C17 5.22012 17 5.22015 17 5.22018C17 5.22021 17 5.22024 17 5.22027C17 5.2203 17 5.22033 17 5.22035C17 5.22038 17 5.22041 17 5.22044C17 5.22047 17 5.2205 17 5.22053C17 5.22056 17 5.22059 17 5.22062C17 5.22065 17 5.22067 17 5.2207C17 5.22073 17 5.22076 17 5.22079C17 5.22082 17 5.22085 17 5.22088C17 5.22091 17 5.22094 17 5.22097C17 5.221 17 5.22103 17 5.22106C17 5.22109 17 5.22112 17 5.22115C17 5.22118 17 5.22121 17 5.22124C17 5.22126 17 5.22129 17 5.22132C17 5.22135 17 5.22138 17 5.22141C17 5.22144 17 5.22147 17 5.2215C17 5.22153 17 5.22156 17 5.22159C17 5.22162 17 5.22165 17 5.22169C17 5.22172 17 5.22175 17 5.22178C17 5.22181 17 5.22184 17 5.22187C17 5.2219 17 5.22193 17 5.22196C17 5.22199 17 5.22202 17 5.22205C17 5.22208 17 5.22211 17 5.22214C17 5.22217 17 5.2222 17 5.22223C17 5.22227 17 5.2223 17 5.22233C17 5.22236 17 5.22239 17 5.22242C17 5.22245 17 5.22248 17 5.22251C17 5.22254 17 5.22258 17 5.22261C17 5.22264 17 5.22267 17 5.2227C17 5.22273 17 5.22276 17 5.22279C17 5.22283 17 5.22286 17 5.22289C17 5.22292 17 5.22295 17 5.22298C17 5.22301 17 5.22305 17 5.22308C17 5.22311 17 5.22314 17 5.22317C17 5.2232 17 5.22324 17 5.22327C17 5.2233 17 5.22333 17 5.22336C17 5.2234 17 5.22343 17 5.22346C17 5.22349 17 5.22352 17 5.22356C17 5.22359 17 5.22362 17 5.22365C17 5.22369 17 5.22372 17 5.22375C17 5.22378 17 5.22382 17 5.22385C17 5.22388 17 5.22391 17 5.22395C17 5.22398 17 5.22401 17 5.22404C17 5.22408 17 5.22411 17 5.22414C17 5.22417 17 5.22421 17 5.22424C17 5.22427 17 5.22431 17 5.22434C17 5.22437 17 5.22441 17 5.22444C17 5.22447 17 5.22451 17 5.22454C17 5.22457 17 5.22461 17 5.22464C17 5.22467 17 5.22471 17 5.22474C17 5.22477 17 5.22481 17 5.22484C17 5.22487 17 5.22491 17 5.22494C17 5.22498 17 5.22501 17 5.22504C17 5.22508 17 5.22511 17 5.22514C17 5.22518 17 5.22521 17 5.22525C17 5.22528 17 5.22532 17 5.22535C17 5.22538 17 5.22542 17 5.22545C17 5.22549 17 5.22552 17 5.22556C17 5.22559 17 5.22562 17 5.22566C17 5.22569 17 5.22573 17 5.22576C17 5.2258 17 5.22583 17 5.22587C17 5.2259 17 5.22594 17 5.22597C17 5.22601 17 5.22604 17 5.22608C17 5.22611 17 5.22615 17 5.22618C17 5.22622 17 5.22625 17 5.22629C17 5.22632 17 5.22636 17 5.2264C17 5.22643 17 5.22647 17 5.2265C17 5.22654 17 5.22657 17 5.22661C17 5.22664 17 5.22668 17 5.22672C17 5.22675 17 5.22679 17 5.22682C17 5.22686 17 5.2269 17 5.22693C17 5.22697 17 5.227 17 5.22704C17 5.22708 17 5.22711 17 5.22715C17 5.22719 17 5.22722 17 5.22726C17 5.2273 17 5.22733 17 5.22737C17 5.22741 17 5.22744 17 5.22748C17 5.22752 17 5.22755 17 5.22759C17 5.22763 17 5.22766 17 5.2277C17 5.22774 17 5.22777 17 5.22781C17 5.22785 17 5.22789 17 5.22792C17 5.22796 17 5.228 17 5.22804C17 5.22807 17 5.22811 17 5.22815C17 5.22819 17 5.22822 17 5.22826C17 5.2283 17 5.22834 17 5.22837C17 5.22841 17 5.22845 17 5.22849C17 5.22853 17 5.22857 17 5.2286C17 5.22864 17 5.22868 17 5.22872C17 5.22876 17 5.22879 17 5.22883C17 5.22887 17 5.22891 17 5.22895C17 5.22899 17 5.22903 17 5.22906C17 5.2291 17 5.22914 17 5.22918C17 5.22922 17 5.22926 17 5.2293C17 5.22934 17 5.22938 17 5.22942C17 5.22945 17 5.22949 17 5.22953C17 5.22957 17 5.22961 17 5.22965C17 5.22969 17 5.22973 17 5.22977C17 5.22981 17 5.22985 17 5.22989C17 5.22993 17 5.22997 17 5.23001C17 5.23005 17 5.23009 17 5.23013C17 5.23017 17 5.23021 17 5.23025C17 5.23029 17 5.23033 17 5.23037C17 5.23041 17 5.23045 17 5.23049C17 5.23053 17 5.23057 17 5.23061C17 5.23065 17 5.2307 17 5.23074C17 5.23078 17 5.23082 17 5.23086C17 5.2309 17 5.23094 17 5.23098C17 5.23102 17 5.23106 17 5.23111C17 5.23115 17 5.23119 17 5.23123C17 5.23127 17 5.23131 17 5.23136C17 5.2314 17 5.23144 17 5.23148C17 5.23152 17 5.23156 17 5.23161C17 5.23165 17 5.23169 17 5.23173C17 5.23177 17 5.23182 17 5.23186C17 5.2319 17 5.23194 17 5.23199C17 5.23203 17 5.23207 17 5.23211C17 5.23216 17 5.2322 17 5.23224C17 5.23228 17 5.23233 17 5.23237C17 5.23241 17 5.23246 17 5.2325C17 5.23254 17 5.23259 17 5.23263C17 5.23267 17 5.23272 17 5.23276C17 5.2328 17 5.23285 17 5.23289C17 5.23293 17 5.23298 17 5.23302C17 5.23306 17 5.23311 17 5.23315C17 5.2332 17 5.23324 17 5.23328C17 5.23333 17 5.23337 17 5.23342C17 5.23346 17 5.23351 17 5.23355C17 5.23359 17 5.23364 17 5.23368C17 5.23373 17 5.23377 17 5.23382C17 5.23386 17 5.23391 17 5.23395C17 5.234 17 5.23404 17 5.23409C17 5.23413 17 5.23418 17 5.23422C17 5.23427 17 5.23431 17 5.23436C17 5.23441 17 5.23445 17 5.2345C17 5.23454 17 5.23459 17 5.23463C17 5.23468 17 5.23473 17 5.23477C17 5.23482 17 5.23486 17 5.23491C17 5.23496 17 5.235 17 5.23505C17 5.2351 17 5.23514 17 5.23519C17 5.23524 17 5.23528 17 5.23533C17 5.23538 17 5.23542 17 5.23547C17 5.23552 17 5.23556 17 5.23561C17 5.23566 17 5.23571 17 5.23575C17 5.2358 17 5.23585 17 5.2359C17 5.23594 17 5.23599 17 5.23604C17 5.23609 17 5.23613 17 5.23618C17 5.23623 17 5.23628 17 5.23633C17 5.23637 17 5.23642 17 5.23647C17 5.23652 17 5.23657 17 5.23662C17 5.23666 17 5.23671 17 5.23676C17 5.23681 17 5.23686 17 5.23691C17 5.23696 17 5.23701 17 5.23705C17 5.2371 17 5.23715 17 5.2372C17 5.23725 17 5.2373 17 5.23735H21ZM21 5.18675C21 4.7624 20.9063 4.36585 20.7522 4.01087L17.083 5.60359C17.0388 5.50162 17 5.35808 17 5.18675H21ZM20.9176 4.80723C20.9176 4.80673 20.9176 4.80025 20.9176 4.79315C20.9176 4.78567 20.9175 4.77211 20.9171 4.7554C20.9165 4.72537 20.9145 4.65926 20.9055 4.57637C20.8841 4.37917 20.8258 4.11137 20.6721 3.82803C20.5401 3.58483 20.3882 3.42677 20.3368 3.3742C20.3062 3.34286 20.2806 3.31864 20.2693 3.30798C20.2578 3.2972 20.2467 3.28703 20.2455 3.28586L17.5349 6.22739C17.5576 6.24836 17.5168 6.21167 17.4753 6.16909C17.4316 6.12444 17.2849 5.9727 17.1563 5.73582C17.006 5.45881 16.9494 5.19734 16.9289 5.00805C16.915 4.88011 16.9176 4.76082 16.9176 4.80723H20.9176ZM20.7248 3.96026C20.6912 3.88283 20.4923 3.36151 20.0258 2.93164L17.3152 5.87317C17.182 5.7504 17.1032 5.63009 17.0642 5.56194C17.0461 5.53013 17.0363 5.50908 17.036 5.50847C17.0357 5.50788 17.0369 5.51038 17.0404 5.51814C17.0441 5.5266 17.0482 5.53613 17.0556 5.55299L20.7248 3.96026ZM20.0258 2.93166L19.9984 2.90636L17.2877 5.84786L17.3152 5.87316L20.0258 2.93166ZM19.9984 2.90634C20.09 2.9908 20.1522 3.07137 20.1256 3.03871C20.111 3.02077 20.0076 2.88959 19.8611 2.75454L17.1505 5.69607C17.0588 5.61161 16.9967 5.53104 17.0233 5.5637C17.0379 5.58164 17.1412 5.71282 17.2878 5.84787L19.9984 2.90634ZM19.866 2.75909L15.8024 -1.01079L13.082 1.92163L17.1455 5.69151L19.866 2.75909ZM15.7975 -1.01534C15.1385 -1.62262 14.2196 -2 13.289 -2V2C13.2154 2 13.1783 1.98596 13.1685 1.98209C13.1585 1.97812 13.1302 1.96613 13.0869 1.92619L15.7975 -1.01534ZM13.289 -2H5.93064V2H13.289V-2ZM5.93064 -2C4.07709 -2 2.28324 -0.572241 2.28324 1.51807H6.28324C6.28324 1.71316 6.19352 1.85122 6.12247 1.9167C6.05357 1.98018 5.98226 2 5.93064 2V-2ZM2.28324 1.51807V3.92169H6.28324V1.51807H2.28324ZM4.28324 1.92169H1.6474V5.92169H4.28324V1.92169ZM1.6474 1.92169C-0.20615 1.92169 -2 3.34945 -2 5.43976H2C2 5.63484 1.91029 5.77291 1.83923 5.83839C1.77033 5.90187 1.69902 5.92169 1.6474 5.92169V1.92169ZM-2 5.43976V19.4819H2V5.43976H-2ZM-2 19.4819C-2 21.5722 -0.206149 23 1.6474 23V19C1.69902 19 1.77033 19.0198 1.83923 19.0833C1.91029 19.1488 2 19.2868 2 19.4819H-2ZM1.6474 23H13.0694V19H1.6474V23ZM13.0694 23C14.9229 23 16.7168 21.5722 16.7168 19.4819H12.7168C12.7168 19.2868 12.8065 19.1488 12.8775 19.0833C12.9464 19.0198 13.0177 19 13.0694 19V23ZM16.7168 19.4819V17.0783H12.7168V19.4819H16.7168ZM14.7168 19.0783H17.3526V15.0783H14.7168V19.0783ZM17.3526 19.0783C19.2062 19.0783 21 17.6506 21 15.5602H17C17 15.3652 17.0897 15.2271 17.1608 15.1616C17.2297 15.0981 17.301 15.0783 17.3526 15.0783V19.0783ZM21 15.5602V5.28795H17V15.5602H21ZM19 5.28795C21 5.28795 21 5.28795 21 5.28795V5.28795C21 5.28795 21 5.28795 21 5.28795C21 5.28795 21 5.28795 21 5.28795C21 5.28795 21 5.28795 21 5.28794C21 5.28794 21 5.28794 21 5.28794C21 5.28794 21 5.28794 21 5.28794C21 5.28794 21 5.28794 21 5.28793C21 5.28793 21 5.28793 21 5.28793C21 5.28793 21 5.28793 21 5.28792C21 5.28792 21 5.28792 21 5.28792C21 5.28792 21 5.28791 21 5.28791C21 5.28791 21 5.28791 21 5.2879C21 5.2879 21 5.2879 21 5.2879C21 5.28789 21 5.28789 21 5.28789C21 5.28788 21 5.28788 21 5.28788C21 5.28788 21 5.28787 21 5.28787C21 5.28787 21 5.28786 21 5.28786C21 5.28786 21 5.28785 21 5.28785C21 5.28785 21 5.28784 21 5.28784C21 5.28783 21 5.28783 21 5.28783C21 5.28782 21 5.28782 21 5.28781C21 5.28781 21 5.28781 21 5.2878C21 5.2878 21 5.28779 21 5.28779C21 5.28778 21 5.28778 21 5.28777C21 5.28777 21 5.28776 21 5.28776C21 5.28775 21 5.28775 21 5.28774C21 5.28774 21 5.28773 21 5.28773C21 5.28772 21 5.28772 21 5.28771C21 5.28771 21 5.2877 21 5.2877C21 5.28769 21 5.28768 21 5.28768C21 5.28767 21 5.28767 21 5.28766C21 5.28766 21 5.28765 21 5.28764C21 5.28764 21 5.28763 21 5.28762C21 5.28762 21 5.28761 21 5.28761C21 5.2876 21 5.28759 21 5.28759C21 5.28758 21 5.28757 21 5.28757C21 5.28756 21 5.28755 21 5.28754C21 5.28754 21 5.28753 21 5.28752C21 5.28752 21 5.28751 21 5.2875C21 5.28749 21 5.28749 21 5.28748C21 5.28747 21 5.28746 21 5.28746C21 5.28745 21 5.28744 21 5.28743C21 5.28742 21 5.28742 21 5.28741C21 5.2874 21 5.28739 21 5.28738C21 5.28737 21 5.28737 21 5.28736C21 5.28735 21 5.28734 21 5.28733C21 5.28732 21 5.28731 21 5.28731C21 5.2873 21 5.28729 21 5.28728C21 5.28727 21 5.28726 21 5.28725C21 5.28724 21 5.28723 21 5.28722C21 5.28721 21 5.28721 21 5.2872C21 5.28719 21 5.28718 21 5.28717C21 5.28716 21 5.28715 21 5.28714C21 5.28713 21 5.28712 21 5.28711C21 5.2871 21 5.28709 21 5.28708C21 5.28707 21 5.28706 21 5.28705C21 5.28704 21 5.28703 21 5.28701C21 5.287 21 5.28699 21 5.28698C21 5.28697 21 5.28696 21 5.28695C21 5.28694 21 5.28693 21 5.28692C21 5.28691 21 5.2869 21 5.28688C21 5.28687 21 5.28686 21 5.28685C21 5.28684 21 5.28683 21 5.28682C21 5.2868 21 5.28679 21 5.28678C21 5.28677 21 5.28676 21 5.28675C21 5.28673 21 5.28672 21 5.28671C21 5.2867 21 5.28668 21 5.28667C21 5.28666 21 5.28665 21 5.28664C21 5.28662 21 5.28661 21 5.2866C21 5.28659 21 5.28657 21 5.28656C21 5.28655 21 5.28653 21 5.28652C21 5.28651 21 5.2865 21 5.28648C21 5.28647 21 5.28646 21 5.28644C21 5.28643 21 5.28642 21 5.2864C21 5.28639 21 5.28638 21 5.28636C21 5.28635 21 5.28633 21 5.28632C21 5.28631 21 5.28629 21 5.28628C21 5.28627 21 5.28625 21 5.28624C21 5.28622 21 5.28621 21 5.2862C21 5.28618 21 5.28617 21 5.28615C21 5.28614 21 5.28612 21 5.28611C21 5.28609 21 5.28608 21 5.28607C21 5.28605 21 5.28604 21 5.28602C21 5.28601 21 5.28599 21 5.28598C21 5.28596 21 5.28595 21 5.28593C21 5.28591 21 5.2859 21 5.28588C21 5.28587 21 5.28585 21 5.28584C21 5.28582 21 5.28581 21 5.28579C21 5.28578 21 5.28576 21 5.28574C21 5.28573 21 5.28571 21 5.2857C21 5.28568 21 5.28566 21 5.28565C21 5.28563 21 5.28562 21 5.2856C21 5.28558 21 5.28557 21 5.28555C21 5.28553 21 5.28552 21 5.2855C21 5.28548 21 5.28547 21 5.28545C21 5.28543 21 5.28542 21 5.2854C21 5.28538 21 5.28537 21 5.28535C21 5.28533 21 5.28531 21 5.2853C21 5.28528 21 5.28526 21 5.28524C21 5.28523 21 5.28521 21 5.28519C21 5.28517 21 5.28516 21 5.28514C21 5.28512 21 5.2851 21 5.28509C21 5.28507 21 5.28505 21 5.28503C21 5.28501 21 5.285 21 5.28498C21 5.28496 21 5.28494 21 5.28492C21 5.2849 21 5.28489 21 5.28487C21 5.28485 21 5.28483 21 5.28481C21 5.28479 21 5.28477 21 5.28476C21 5.28474 21 5.28472 21 5.2847C21 5.28468 21 5.28466 21 5.28464C21 5.28462 21 5.2846 21 5.28458C21 5.28457 21 5.28455 21 5.28453C21 5.28451 21 5.28449 21 5.28447C21 5.28445 21 5.28443 21 5.28441C21 5.28439 21 5.28437 21 5.28435C21 5.28433 21 5.28431 21 5.28429C21 5.28427 21 5.28425 21 5.28423C21 5.28421 21 5.28419 21 5.28417C21 5.28415 21 5.28413 21 5.28411C21 5.28409 21 5.28407 21 5.28405C21 5.28403 21 5.28401 21 5.28398C21 5.28396 21 5.28394 21 5.28392C21 5.2839 21 5.28388 21 5.28386C21 5.28384 21 5.28382 21 5.2838C21 5.28377 21 5.28375 21 5.28373C21 5.28371 21 5.28369 21 5.28367C21 5.28365 21 5.28363 21 5.2836C21 5.28358 21 5.28356 21 5.28354C21 5.28352 21 5.28349 21 5.28347C21 5.28345 21 5.28343 21 5.28341C21 5.28338 21 5.28336 21 5.28334C21 5.28332 21 5.2833 21 5.28327C21 5.28325 21 5.28323 21 5.28321C21 5.28318 21 5.28316 21 5.28314C21 5.28312 21 5.28309 21 5.28307C21 5.28305 21 5.28302 21 5.283C21 5.28298 21 5.28296 21 5.28293C21 5.28291 21 5.28289 21 5.28286C21 5.28284 21 5.28282 21 5.28279C21 5.28277 21 5.28275 21 5.28272C21 5.2827 21 5.28268 21 5.28265C21 5.28263 21 5.28261 21 5.28258C21 5.28256 21 5.28253 21 5.28251C21 5.28249 21 5.28246 21 5.28244C21 5.28241 21 5.28239 21 5.28237C21 5.28234 21 5.28232 21 5.28229C21 5.28227 21 5.28225 21 5.28222C21 5.2822 21 5.28217 21 5.28215C21 5.28212 21 5.2821 21 5.28207C21 5.28205 21 5.28202 21 5.282C21 5.28197 21 5.28195 21 5.28192C21 5.2819 21 5.28187 21 5.28185C21 5.28182 21 5.2818 21 5.28177C21 5.28175 21 5.28172 21 5.2817C21 5.28167 21 5.28165 21 5.28162C21 5.2816 21 5.28157 21 5.28154C21 5.28152 21 5.28149 21 5.28147C21 5.28144 21 5.28142 21 5.28139C21 5.28136 21 5.28134 21 5.28131C21 5.28129 21 5.28126 21 5.28123C21 5.28121 21 5.28118 21 5.28115C21 5.28113 21 5.2811 21 5.28108C21 5.28105 21 5.28102 21 5.281C21 5.28097 21 5.28094 21 5.28092C21 5.28089 21 5.28086 21 5.28084C21 5.28081 21 5.28078 21 5.28075C21 5.28073 21 5.2807 21 5.28067C21 5.28065 21 5.28062 21 5.28059C21 5.28056 21 5.28054 21 5.28051C21 5.28048 21 5.28046 21 5.28043C21 5.2804 21 5.28037 21 5.28034C21 5.28032 21 5.28029 21 5.28026C21 5.28023 21 5.28021 21 5.28018C21 5.28015 21 5.28012 21 5.28009C21 5.28007 21 5.28004 21 5.28001C21 5.27998 21 5.27995 21 5.27993C21 5.2799 21 5.27987 21 5.27984C21 5.27981 21 5.27978 21 5.27976C21 5.27973 21 5.2797 21 5.27967C21 5.27964 21 5.27961 21 5.27958C21 5.27955 21 5.27953 21 5.2795C21 5.27947 21 5.27944 21 5.27941C21 5.27938 21 5.27935 21 5.27932C21 5.27929 21 5.27926 21 5.27924C21 5.27921 21 5.27918 21 5.27915C21 5.27912 21 5.27909 21 5.27906C21 5.27903 21 5.279 21 5.27897C21 5.27894 21 5.27891 21 5.27888C21 5.27885 21 5.27882 21 5.27879C21 5.27876 21 5.27873 21 5.2787C21 5.27867 21 5.27864 21 5.27861C21 5.27858 21 5.27855 21 5.27852C21 5.27849 21 5.27846 21 5.27843C21 5.2784 21 5.27837 21 5.27834C21 5.27831 21 5.27828 21 5.27825C21 5.27822 21 5.27819 21 5.27816C21 5.27813 21 5.27809 21 5.27806C21 5.27803 21 5.278 21 5.27797C21 5.27794 21 5.27791 21 5.27788C21 5.27785 21 5.27782 21 5.27778C21 5.27775 21 5.27772 21 5.27769C21 5.27766 21 5.27763 21 5.2776C21 5.27757 21 5.27753 21 5.2775C21 5.27747 21 5.27744 21 5.27741C21 5.27738 21 5.27734 21 5.27731C21 5.27728 21 5.27725 21 5.27722C21 5.27718 21 5.27715 21 5.27712C21 5.27709 21 5.27706 21 5.27703C21 5.27699 21 5.27696 21 5.27693C21 5.2769 21 5.27686 21 5.27683C21 5.2768 21 5.27677 21 5.27673C21 5.2767 21 5.27667 21 5.27664C21 5.2766 21 5.27657 21 5.27654C21 5.27651 21 5.27647 21 5.27644C21 5.27641 21 5.27638 21 5.27634C21 5.27631 21 5.27628 21 5.27624C21 5.27621 21 5.27618 21 5.27614C21 5.27611 21 5.27608 21 5.27604C21 5.27601 21 5.27598 21 5.27595C21 5.27591 21 5.27588 21 5.27584C21 5.27581 21 5.27578 21 5.27574C21 5.27571 21 5.27568 21 5.27564C21 5.27561 21 5.27558 21 5.27554C21 5.27551 21 5.27547 21 5.27544C21 5.27541 21 5.27537 21 5.27534C21 5.2753 21 5.27527 21 5.27524C21 5.2752 21 5.27517 21 5.27513C21 5.2751 21 5.27507 21 5.27503C21 5.275 21 5.27496 21 5.27493C21 5.27489 21 5.27486 21 5.27483C21 5.27479 21 5.27476 21 5.27472C21 5.27469 21 5.27465 21 5.27462C21 5.27458 21 5.27455 21 5.27451C21 5.27448 21 5.27444 21 5.27441C21 5.27437 21 5.27434 21 5.2743C21 5.27427 21 5.27423 21 5.2742C21 5.27416 21 5.27413 21 5.27409C21 5.27406 21 5.27402 21 5.27399C21 5.27395 21 5.27392 21 5.27388C21 5.27384 21 5.27381 21 5.27377C21 5.27374 21 5.2737 21 5.27367C21 5.27363 21 5.27359 21 5.27356C21 5.27352 21 5.27349 21 5.27345C21 5.27342 21 5.27338 21 5.27334C21 5.27331 21 5.27327 21 5.27324C21 5.2732 21 5.27316 21 5.27313C21 5.27309 21 5.27306 21 5.27302C21 5.27298 21 5.27295 21 5.27291C21 5.27287 21 5.27284 21 5.2728C21 5.27276 21 5.27273 21 5.27269C21 5.27265 21 5.27262 21 5.27258C21 5.27254 21 5.27251 21 5.27247C21 5.27243 21 5.2724 21 5.27236C21 5.27232 21 5.27229 21 5.27225C21 5.27221 21 5.27218 21 5.27214C21 5.2721 21 5.27206 21 5.27203C21 5.27199 21 5.27195 21 5.27192C21 5.27188 21 5.27184 21 5.2718C21 5.27177 21 5.27173 21 5.27169C21 5.27165 21 5.27162 21 5.27158C21 5.27154 21 5.2715 21 5.27147C21 5.27143 21 5.27139 21 5.27135C21 5.27132 21 5.27128 21 5.27124C21 5.2712 21 5.27116 21 5.27113C21 5.27109 21 5.27105 21 5.27101C21 5.27097 21 5.27094 21 5.2709C21 5.27086 21 5.27082 21 5.27078C21 5.27075 21 5.27071 21 5.27067C21 5.27063 21 5.27059 21 5.27055C21 5.27052 21 5.27048 21 5.27044C21 5.2704 21 5.27036 21 5.27032C21 5.27028 21 5.27025 21 5.27021C21 5.27017 21 5.27013 21 5.27009C21 5.27005 21 5.27001 21 5.26998C21 5.26994 21 5.2699 21 5.26986C21 5.26982 21 5.26978 21 5.26974C21 5.2697 21 5.26966 21 5.26962C21 5.26959 21 5.26955 21 5.26951C21 5.26947 21 5.26943 21 5.26939C21 5.26935 21 5.26931 21 5.26927C21 5.26923 21 5.26919 21 5.26915C21 5.26911 21 5.26907 21 5.26903C21 5.269 21 5.26896 21 5.26892C21 5.26888 21 5.26884 21 5.2688C21 5.26876 21 5.26872 21 5.26868C21 5.26864 21 5.2686 21 5.26856C21 5.26852 21 5.26848 21 5.26844C21 5.2684 21 5.26836 21 5.26832C21 5.26828 21 5.26824 21 5.2682C21 5.26816 21 5.26812 21 5.26808C21 5.26804 21 5.268 21 5.26796C21 5.26792 21 5.26788 21 5.26784C21 5.2678 21 5.26776 21 5.26771C21 5.26767 21 5.26763 21 5.26759C21 5.26755 21 5.26751 21 5.26747C21 5.26743 21 5.26739 21 5.26735C21 5.26731 21 5.26727 21 5.26723C21 5.26719 21 5.26715 21 5.26711C21 5.26706 21 5.26702 21 5.26698C21 5.26694 21 5.2669 21 5.26686C21 5.26682 21 5.26678 21 5.26674C21 5.2667 21 5.26665 21 5.26661C21 5.26657 21 5.26653 21 5.26649C21 5.26645 21 5.26641 21 5.26637C21 5.26632 21 5.26628 21 5.26624C21 5.2662 21 5.26616 21 5.26612C21 5.26608 21 5.26603 21 5.26599C21 5.26595 21 5.26591 21 5.26587C21 5.26583 21 5.26578 21 5.26574C21 5.2657 21 5.26566 21 5.26562C21 5.26557 21 5.26553 21 5.26549C21 5.26545 21 5.26541 21 5.26537C21 5.26532 21 5.26528 21 5.26524C21 5.2652 21 5.26516 21 5.26511C21 5.26507 21 5.26503 21 5.26499C21 5.26495 21 5.2649 21 5.26486C21 5.26482 21 5.26478 21 5.26473C21 5.26469 21 5.26465 21 5.26461C21 5.26456 21 5.26452 21 5.26448C21 5.26444 21 5.26439 21 5.26435C21 5.26431 21 5.26427 21 5.26422C21 5.26418 21 5.26414 21 5.2641C21 5.26405 21 5.26401 21 5.26397C21 5.26393 21 5.26388 21 5.26384C21 5.2638 21 5.26375 21 5.26371C21 5.26367 21 5.26363 21 5.26358C21 5.26354 21 5.2635 21 5.26345C21 5.26341 21 5.26337 21 5.26332C21 5.26328 21 5.26324 21 5.26319C21 5.26315 21 5.26311 21 5.26306C21 5.26302 21 5.26298 21 5.26294C21 5.26289 21 5.26285 21 5.2628C21 5.26276 21 5.26272 21 5.26267C21 5.26263 21 5.26259 21 5.26254C21 5.2625 21 5.26246 21 5.26241C21 5.26237 21 5.26233 21 5.26228C21 5.26224 21 5.2622 21 5.26215C21 5.26211 21 5.26206 21 5.26202C21 5.26198 21 5.26193 21 5.26189C21 5.26185 21 5.2618 21 5.26176C21 5.26171 21 5.26167 21 5.26163C21 5.26158 21 5.26154 21 5.26149C21 5.26145 21 5.26141 21 5.26136C21 5.26132 21 5.26127 21 5.26123C21 5.26119 21 5.26114 21 5.2611C21 5.26105 21 5.26101 21 5.26096C21 5.26092 21 5.26088 21 5.26083C21 5.26079 21 5.26074 21 5.2607C21 5.26065 21 5.26061 21 5.26056C21 5.26052 21 5.26048 21 5.26043C21 5.26039 21 5.26034 21 5.2603C21 5.26025 21 5.26021 21 5.26016C21 5.26012 21 5.26007 21 5.26003C21 5.25998 21 5.25994 21 5.2599C21 5.25985 21 5.25981 21 5.25976C21 5.25972 21 5.25967 21 5.25963C21 5.25958 21 5.25954 21 5.25949C21 5.25945 21 5.2594 21 5.25936C21 5.25931 21 5.25927 21 5.25922C21 5.25918 21 5.25913 21 5.25909C21 5.25904 21 5.259 21 5.25895C21 5.25891 21 5.25886 21 5.25882C21 5.25877 21 5.25872 21 5.25868C21 5.25863 21 5.25859 21 5.25854C21 5.2585 21 5.25845 21 5.25841C21 5.25836 21 5.25832 21 5.25827C21 5.25823 21 5.25818 21 5.25813C21 5.25809 21 5.25804 21 5.258C21 5.25795 21 5.25791 21 5.25786C21 5.25782 21 5.25777 21 5.25772C21 5.25768 21 5.25763 21 5.25759C21 5.25754 21 5.2575 21 5.25745C21 5.2574 21 5.25736 21 5.25731C21 5.25727 21 5.25722 21 5.25717C21 5.25713 21 5.25708 21 5.25704C21 5.25699 21 5.25695 21 5.2569C21 5.25685 21 5.25681 21 5.25676C21 5.25672 21 5.25667 21 5.25662C21 5.25658 21 5.25653 21 5.25648C21 5.25644 21 5.25639 21 5.25635C21 5.2563 21 5.25625 21 5.25621C21 5.25616 21 5.25612 21 5.25607C21 5.25602 21 5.25598 21 5.25593C21 5.25588 21 5.25584 21 5.25579C21 5.25574 21 5.2557 21 5.25565C21 5.25561 21 5.25556 21 5.25551C21 5.25547 21 5.25542 21 5.25537C21 5.25533 21 5.25528 21 5.25523C21 5.25519 21 5.25514 21 5.25509C21 5.25505 21 5.255 21 5.25495C21 5.25491 21 5.25486 21 5.25481C21 5.25477 21 5.25472 21 5.25467C21 5.25463 21 5.25458 21 5.25453C21 5.25449 21 5.25444 21 5.25439C21 5.25435 21 5.2543 21 5.25425C21 5.25421 21 5.25416 21 5.25411C21 5.25406 21 5.25402 21 5.25397C21 5.25392 21 5.25388 21 5.25383C21 5.25378 21 5.25374 21 5.25369C21 5.25364 21 5.25359 21 5.25355C21 5.2535 21 5.25345 21 5.25341C21 5.25336 21 5.25331 21 5.25326C21 5.25322 21 5.25317 21 5.25312C21 5.25308 21 5.25303 21 5.25298C21 5.25293 21 5.25289 21 5.25284C21 5.25279 21 5.25274 21 5.2527C21 5.25265 21 5.2526 21 5.25256C21 5.25251 21 5.25246 21 5.25241C21 5.25237 21 5.25232 21 5.25227C21 5.25222 21 5.25218 21 5.25213C21 5.25208 21 5.25203 21 5.25199C21 5.25194 21 5.25189 21 5.25184C21 5.2518 21 5.25175 21 5.2517C21 5.25165 21 5.25161 21 5.25156C21 5.25151 21 5.25146 21 5.25141C21 5.25137 21 5.25132 21 5.25127C21 5.25122 21 5.25118 21 5.25113C21 5.25108 21 5.25103 21 5.25099C21 5.25094 21 5.25089 21 5.25084C21 5.25079 21 5.25075 21 5.2507C21 5.25065 21 5.2506 21 5.25055C21 5.25051 21 5.25046 21 5.25041C21 5.25036 21 5.25031 21 5.25027C21 5.25022 21 5.25017 21 5.25012C21 5.25007 21 5.25003 21 5.24998C21 5.24993 21 5.24988 21 5.24984C21 5.24979 21 5.24974 21 5.24969C21 5.24964 21 5.24959 21 5.24955C21 5.2495 21 5.24945 21 5.2494C21 5.24935 21 5.24931 21 5.24926C21 5.24921 21 5.24916 21 5.24911C21 5.24906 21 5.24902 21 5.24897C21 5.24892 21 5.24887 21 5.24882C21 5.24878 21 5.24873 21 5.24868C21 5.24863 21 5.24858 21 5.24853C21 5.24849 21 5.24844 21 5.24839C21 5.24834 21 5.24829 21 5.24824C21 5.2482 21 5.24815 21 5.2481C21 5.24805 21 5.248 21 5.24795C21 5.2479 21 5.24786 21 5.24781C21 5.24776 21 5.24771 21 5.24766C21 5.24761 21 5.24757 21 5.24752C21 5.24747 21 5.24742 21 5.24737C21 5.24732 21 5.24727 21 5.24723C21 5.24718 21 5.24713 21 5.24708C21 5.24703 21 5.24698 21 5.24693C21 5.24689 21 5.24684 21 5.24679C21 5.24674 21 5.24669 21 5.24664C21 5.24659 21 5.24654 21 5.2465C21 5.24645 21 5.2464 21 5.24635C21 5.2463 21 5.24625 21 5.2462C21 5.24615 21 5.24611 21 5.24606C21 5.24601 21 5.24596 21 5.24591C21 5.24586 21 5.24581 21 5.24576C21 5.24572 21 5.24567 21 5.24562C21 5.24557 21 5.24552 21 5.24547C21 5.24542 21 5.24537 21 5.24533C21 5.24528 21 5.24523 21 5.24518C21 5.24513 21 5.24508 21 5.24503C21 5.24498 21 5.24493 21 5.24489C21 5.24484 21 5.24479 21 5.24474C21 5.24469 21 5.24464 21 5.24459C21 5.24454 21 5.24449 21 5.24444C21 5.2444 21 5.24435 21 5.2443C21 5.24425 21 5.2442 21 5.24415C21 5.2441 21 5.24405 21 5.244C21 5.24395 21 5.24391 21 5.24386C21 5.24381 21 5.24376 21 5.24371C21 5.24366 21 5.24361 21 5.24356C21 5.24351 21 5.24346 21 5.24341C21 5.24337 21 5.24332 21 5.24327C21 5.24322 21 5.24317 21 5.24312C21 5.24307 21 5.24302 21 5.24297C21 5.24292 21 5.24287 21 5.24283C21 5.24278 21 5.24273 21 5.24268C21 5.24263 21 5.24258 21 5.24253C21 5.24248 21 5.24243 21 5.24238C21 5.24233 21 5.24228 21 5.24224C21 5.24219 21 5.24214 21 5.24209C21 5.24204 21 5.24199 21 5.24194C21 5.24189 21 5.24184 21 5.24179C21 5.24174 21 5.24169 21 5.24164C21 5.24159 21 5.24155 21 5.2415C21 5.24145 21 5.2414 21 5.24135C21 5.2413 21 5.24125 21 5.2412C21 5.24115 21 5.2411 21 5.24105C21 5.241 21 5.24095 21 5.2409C21 5.24086 21 5.24081 21 5.24076C21 5.24071 21 5.24066 21 5.24061C21 5.24056 21 5.24051 21 5.24046C21 5.24041 21 5.24036 21 5.24031C21 5.24026 21 5.24021 21 5.24016C21 5.24012 21 5.24007 21 5.24002C21 5.23997 21 5.23992 21 5.23987C21 5.23982 21 5.23977 21 5.23972C21 5.23967 21 5.23962 21 5.23957C21 5.23952 21 5.23947 21 5.23942C21 5.23938 21 5.23933 21 5.23928C21 5.23923 21 5.23918 21 5.23913C21 5.23908 21 5.23903 21 5.23898C21 5.23893 21 5.23888 21 5.23883C21 5.23878 21 5.23873 21 5.23868C21 5.23863 21 5.23858 21 5.23854C21 5.23849 21 5.23844 21 5.23839C21 5.23834 21 5.23829 21 5.23824C21 5.23819 21 5.23814 21 5.23809C21 5.23804 21 5.23799 21 5.23794C21 5.23789 21 5.23784 21 5.23779C21 5.23774 21 5.2377 21 5.23765C21 5.2376 21 5.23755 21 5.2375C21 5.23745 21 5.2374 21 5.23735H17C17 5.2374 17 5.23745 17 5.2375C17 5.23755 17 5.2376 17 5.23765C17 5.2377 17 5.23774 17 5.23779C17 5.23784 17 5.23789 17 5.23794C17 5.23799 17 5.23804 17 5.23809C17 5.23814 17 5.23819 17 5.23824C17 5.23829 17 5.23834 17 5.23839C17 5.23844 17 5.23849 17 5.23854C17 5.23858 17 5.23863 17 5.23868C17 5.23873 17 5.23878 17 5.23883C17 5.23888 17 5.23893 17 5.23898C17 5.23903 17 5.23908 17 5.23913C17 5.23918 17 5.23923 17 5.23928C17 5.23933 17 5.23938 17 5.23942C17 5.23947 17 5.23952 17 5.23957C17 5.23962 17 5.23967 17 5.23972C17 5.23977 17 5.23982 17 5.23987C17 5.23992 17 5.23997 17 5.24002C17 5.24007 17 5.24012 17 5.24016C17 5.24021 17 5.24026 17 5.24031C17 5.24036 17 5.24041 17 5.24046C17 5.24051 17 5.24056 17 5.24061C17 5.24066 17 5.24071 17 5.24076C17 5.24081 17 5.24086 17 5.2409C17 5.24095 17 5.241 17 5.24105C17 5.2411 17 5.24115 17 5.2412C17 5.24125 17 5.2413 17 5.24135C17 5.2414 17 5.24145 17 5.2415C17 5.24155 17 5.24159 17 5.24164C17 5.24169 17 5.24174 17 5.24179C17 5.24184 17 5.24189 17 5.24194C17 5.24199 17 5.24204 17 5.24209C17 5.24214 17 5.24219 17 5.24224C17 5.24228 17 5.24233 17 5.24238C17 5.24243 17 5.24248 17 5.24253C17 5.24258 17 5.24263 17 5.24268C17 5.24273 17 5.24278 17 5.24283C17 5.24287 17 5.24292 17 5.24297C17 5.24302 17 5.24307 17 5.24312C17 5.24317 17 5.24322 17 5.24327C17 5.24332 17 5.24337 17 5.24341C17 5.24346 17 5.24351 17 5.24356C17 5.24361 17 5.24366 17 5.24371C17 5.24376 17 5.24381 17 5.24386C17 5.24391 17 5.24395 17 5.244C17 5.24405 17 5.2441 17 5.24415C17 5.2442 17 5.24425 17 5.2443C17 5.24435 17 5.2444 17 5.24444C17 5.24449 17 5.24454 17 5.24459C17 5.24464 17 5.24469 17 5.24474C17 5.24479 17 5.24484 17 5.24489C17 5.24493 17 5.24498 17 5.24503C17 5.24508 17 5.24513 17 5.24518C17 5.24523 17 5.24528 17 5.24533C17 5.24537 17 5.24542 17 5.24547C17 5.24552 17 5.24557 17 5.24562C17 5.24567 17 5.24572 17 5.24576C17 5.24581 17 5.24586 17 5.24591C17 5.24596 17 5.24601 17 5.24606C17 5.24611 17 5.24615 17 5.2462C17 5.24625 17 5.2463 17 5.24635C17 5.2464 17 5.24645 17 5.2465C17 5.24654 17 5.24659 17 5.24664C17 5.24669 17 5.24674 17 5.24679C17 5.24684 17 5.24689 17 5.24693C17 5.24698 17 5.24703 17 5.24708C17 5.24713 17 5.24718 17 5.24723C17 5.24727 17 5.24732 17 5.24737C17 5.24742 17 5.24747 17 5.24752C17 5.24757 17 5.24761 17 5.24766C17 5.24771 17 5.24776 17 5.24781C17 5.24786 17 5.2479 17 5.24795C17 5.248 17 5.24805 17 5.2481C17 5.24815 17 5.2482 17 5.24824C17 5.24829 17 5.24834 17 5.24839C17 5.24844 17 5.24849 17 5.24853C17 5.24858 17 5.24863 17 5.24868C17 5.24873 17 5.24878 17 5.24882C17 5.24887 17 5.24892 17 5.24897C17 5.24902 17 5.24906 17 5.24911C17 5.24916 17 5.24921 17 5.24926C17 5.24931 17 5.24935 17 5.2494C17 5.24945 17 5.2495 17 5.24955C17 5.24959 17 5.24964 17 5.24969C17 5.24974 17 5.24979 17 5.24984C17 5.24988 17 5.24993 17 5.24998C17 5.25003 17 5.25007 17 5.25012C17 5.25017 17 5.25022 17 5.25027C17 5.25031 17 5.25036 17 5.25041C17 5.25046 17 5.25051 17 5.25055C17 5.2506 17 5.25065 17 5.2507C17 5.25075 17 5.25079 17 5.25084C17 5.25089 17 5.25094 17 5.25099C17 5.25103 17 5.25108 17 5.25113C17 5.25118 17 5.25122 17 5.25127C17 5.25132 17 5.25137 17 5.25141C17 5.25146 17 5.25151 17 5.25156C17 5.25161 17 5.25165 17 5.2517C17 5.25175 17 5.2518 17 5.25184C17 5.25189 17 5.25194 17 5.25199C17 5.25203 17 5.25208 17 5.25213C17 5.25218 17 5.25222 17 5.25227C17 5.25232 17 5.25237 17 5.25241C17 5.25246 17 5.25251 17 5.25256C17 5.2526 17 5.25265 17 5.2527C17 5.25274 17 5.25279 17 5.25284C17 5.25289 17 5.25293 17 5.25298C17 5.25303 17 5.25308 17 5.25312C17 5.25317 17 5.25322 17 5.25326C17 5.25331 17 5.25336 17 5.25341C17 5.25345 17 5.2535 17 5.25355C17 5.25359 17 5.25364 17 5.25369C17 5.25374 17 5.25378 17 5.25383C17 5.25388 17 5.25392 17 5.25397C17 5.25402 17 5.25406 17 5.25411C17 5.25416 17 5.25421 17 5.25425C17 5.2543 17 5.25435 17 5.25439C17 5.25444 17 5.25449 17 5.25453C17 5.25458 17 5.25463 17 5.25467C17 5.25472 17 5.25477 17 5.25481C17 5.25486 17 5.25491 17 5.25495C17 5.255 17 5.25505 17 5.25509C17 5.25514 17 5.25519 17 5.25523C17 5.25528 17 5.25533 17 5.25537C17 5.25542 17 5.25547 17 5.25551C17 5.25556 17 5.25561 17 5.25565C17 5.2557 17 5.25574 17 5.25579C17 5.25584 17 5.25588 17 5.25593C17 5.25598 17 5.25602 17 5.25607C17 5.25612 17 5.25616 17 5.25621C17 5.25625 17 5.2563 17 5.25635C17 5.25639 17 5.25644 17 5.25648C17 5.25653 17 5.25658 17 5.25662C17 5.25667 17 5.25672 17 5.25676C17 5.25681 17 5.25685 17 5.2569C17 5.25695 17 5.25699 17 5.25704C17 5.25708 17 5.25713 17 5.25717C17 5.25722 17 5.25727 17 5.25731C17 5.25736 17 5.2574 17 5.25745C17 5.2575 17 5.25754 17 5.25759C17 5.25763 17 5.25768 17 5.25772C17 5.25777 17 5.25782 17 5.25786C17 5.25791 17 5.25795 17 5.258C17 5.25804 17 5.25809 17 5.25813C17 5.25818 17 5.25823 17 5.25827C17 5.25832 17 5.25836 17 5.25841C17 5.25845 17 5.2585 17 5.25854C17 5.25859 17 5.25863 17 5.25868C17 5.25872 17 5.25877 17 5.25882C17 5.25886 17 5.25891 17 5.25895C17 5.259 17 5.25904 17 5.25909C17 5.25913 17 5.25918 17 5.25922C17 5.25927 17 5.25931 17 5.25936C17 5.2594 17 5.25945 17 5.25949C17 5.25954 17 5.25958 17 5.25963C17 5.25967 17 5.25972 17 5.25976C17 5.25981 17 5.25985 17 5.2599C17 5.25994 17 5.25998 17 5.26003C17 5.26007 17 5.26012 17 5.26016C17 5.26021 17 5.26025 17 5.2603C17 5.26034 17 5.26039 17 5.26043C17 5.26048 17 5.26052 17 5.26056C17 5.26061 17 5.26065 17 5.2607C17 5.26074 17 5.26079 17 5.26083C17 5.26088 17 5.26092 17 5.26096C17 5.26101 17 5.26105 17 5.2611C17 5.26114 17 5.26119 17 5.26123C17 5.26127 17 5.26132 17 5.26136C17 5.26141 17 5.26145 17 5.26149C17 5.26154 17 5.26158 17 5.26163C17 5.26167 17 5.26171 17 5.26176C17 5.2618 17 5.26185 17 5.26189C17 5.26193 17 5.26198 17 5.26202C17 5.26206 17 5.26211 17 5.26215C17 5.2622 17 5.26224 17 5.26228C17 5.26233 17 5.26237 17 5.26241C17 5.26246 17 5.2625 17 5.26254C17 5.26259 17 5.26263 17 5.26267C17 5.26272 17 5.26276 17 5.2628C17 5.26285 17 5.26289 17 5.26294C17 5.26298 17 5.26302 17 5.26306C17 5.26311 17 5.26315 17 5.26319C17 5.26324 17 5.26328 17 5.26332C17 5.26337 17 5.26341 17 5.26345C17 5.2635 17 5.26354 17 5.26358C17 5.26363 17 5.26367 17 5.26371C17 5.26375 17 5.2638 17 5.26384C17 5.26388 17 5.26393 17 5.26397C17 5.26401 17 5.26405 17 5.2641C17 5.26414 17 5.26418 17 5.26422C17 5.26427 17 5.26431 17 5.26435C17 5.26439 17 5.26444 17 5.26448C17 5.26452 17 5.26456 17 5.26461C17 5.26465 17 5.26469 17 5.26473C17 5.26478 17 5.26482 17 5.26486C17 5.2649 17 5.26495 17 5.26499C17 5.26503 17 5.26507 17 5.26511C17 5.26516 17 5.2652 17 5.26524C17 5.26528 17 5.26532 17 5.26537C17 5.26541 17 5.26545 17 5.26549C17 5.26553 17 5.26557 17 5.26562C17 5.26566 17 5.2657 17 5.26574C17 5.26578 17 5.26583 17 5.26587C17 5.26591 17 5.26595 17 5.26599C17 5.26603 17 5.26608 17 5.26612C17 5.26616 17 5.2662 17 5.26624C17 5.26628 17 5.26632 17 5.26637C17 5.26641 17 5.26645 17 5.26649C17 5.26653 17 5.26657 17 5.26661C17 5.26665 17 5.2667 17 5.26674C17 5.26678 17 5.26682 17 5.26686C17 5.2669 17 5.26694 17 5.26698C17 5.26702 17 5.26706 17 5.26711C17 5.26715 17 5.26719 17 5.26723C17 5.26727 17 5.26731 17 5.26735C17 5.26739 17 5.26743 17 5.26747C17 5.26751 17 5.26755 17 5.26759C17 5.26763 17 5.26767 17 5.26771C17 5.26776 17 5.2678 17 5.26784C17 5.26788 17 5.26792 17 5.26796C17 5.268 17 5.26804 17 5.26808C17 5.26812 17 5.26816 17 5.2682C17 5.26824 17 5.26828 17 5.26832C17 5.26836 17 5.2684 17 5.26844C17 5.26848 17 5.26852 17 5.26856C17 5.2686 17 5.26864 17 5.26868C17 5.26872 17 5.26876 17 5.2688C17 5.26884 17 5.26888 17 5.26892C17 5.26896 17 5.269 17 5.26903C17 5.26907 17 5.26911 17 5.26915C17 5.26919 17 5.26923 17 5.26927C17 5.26931 17 5.26935 17 5.26939C17 5.26943 17 5.26947 17 5.26951C17 5.26955 17 5.26959 17 5.26962C17 5.26966 17 5.2697 17 5.26974C17 5.26978 17 5.26982 17 5.26986C17 5.2699 17 5.26994 17 5.26998C17 5.27001 17 5.27005 17 5.27009C17 5.27013 17 5.27017 17 5.27021C17 5.27025 17 5.27028 17 5.27032C17 5.27036 17 5.2704 17 5.27044C17 5.27048 17 5.27052 17 5.27055C17 5.27059 17 5.27063 17 5.27067C17 5.27071 17 5.27075 17 5.27078C17 5.27082 17 5.27086 17 5.2709C17 5.27094 17 5.27097 17 5.27101C17 5.27105 17 5.27109 17 5.27113C17 5.27116 17 5.2712 17 5.27124C17 5.27128 17 5.27132 17 5.27135C17 5.27139 17 5.27143 17 5.27147C17 5.2715 17 5.27154 17 5.27158C17 5.27162 17 5.27165 17 5.27169C17 5.27173 17 5.27177 17 5.2718C17 5.27184 17 5.27188 17 5.27192C17 5.27195 17 5.27199 17 5.27203C17 5.27206 17 5.2721 17 5.27214C17 5.27218 17 5.27221 17 5.27225C17 5.27229 17 5.27232 17 5.27236C17 5.2724 17 5.27243 17 5.27247C17 5.27251 17 5.27254 17 5.27258C17 5.27262 17 5.27265 17 5.27269C17 5.27273 17 5.27276 17 5.2728C17 5.27284 17 5.27287 17 5.27291C17 5.27295 17 5.27298 17 5.27302C17 5.27306 17 5.27309 17 5.27313C17 5.27316 17 5.2732 17 5.27324C17 5.27327 17 5.27331 17 5.27334C17 5.27338 17 5.27342 17 5.27345C17 5.27349 17 5.27352 17 5.27356C17 5.27359 17 5.27363 17 5.27367C17 5.2737 17 5.27374 17 5.27377C17 5.27381 17 5.27384 17 5.27388C17 5.27392 17 5.27395 17 5.27399C17 5.27402 17 5.27406 17 5.27409C17 5.27413 17 5.27416 17 5.2742C17 5.27423 17 5.27427 17 5.2743C17 5.27434 17 5.27437 17 5.27441C17 5.27444 17 5.27448 17 5.27451C17 5.27455 17 5.27458 17 5.27462C17 5.27465 17 5.27469 17 5.27472C17 5.27476 17 5.27479 17 5.27483C17 5.27486 17 5.27489 17 5.27493C17 5.27496 17 5.275 17 5.27503C17 5.27507 17 5.2751 17 5.27513C17 5.27517 17 5.2752 17 5.27524C17 5.27527 17 5.2753 17 5.27534C17 5.27537 17 5.27541 17 5.27544C17 5.27547 17 5.27551 17 5.27554C17 5.27558 17 5.27561 17 5.27564C17 5.27568 17 5.27571 17 5.27574C17 5.27578 17 5.27581 17 5.27584C17 5.27588 17 5.27591 17 5.27595C17 5.27598 17 5.27601 17 5.27604C17 5.27608 17 5.27611 17 5.27614C17 5.27618 17 5.27621 17 5.27624C17 5.27628 17 5.27631 17 5.27634C17 5.27638 17 5.27641 17 5.27644C17 5.27647 17 5.27651 17 5.27654C17 5.27657 17 5.2766 17 5.27664C17 5.27667 17 5.2767 17 5.27673C17 5.27677 17 5.2768 17 5.27683C17 5.27686 17 5.2769 17 5.27693C17 5.27696 17 5.27699 17 5.27703C17 5.27706 17 5.27709 17 5.27712C17 5.27715 17 5.27718 17 5.27722C17 5.27725 17 5.27728 17 5.27731C17 5.27734 17 5.27738 17 5.27741C17 5.27744 17 5.27747 17 5.2775C17 5.27753 17 5.27757 17 5.2776C17 5.27763 17 5.27766 17 5.27769C17 5.27772 17 5.27775 17 5.27778C17 5.27782 17 5.27785 17 5.27788C17 5.27791 17 5.27794 17 5.27797C17 5.278 17 5.27803 17 5.27806C17 5.27809 17 5.27813 17 5.27816C17 5.27819 17 5.27822 17 5.27825C17 5.27828 17 5.27831 17 5.27834C17 5.27837 17 5.2784 17 5.27843C17 5.27846 17 5.27849 17 5.27852C17 5.27855 17 5.27858 17 5.27861C17 5.27864 17 5.27867 17 5.2787C17 5.27873 17 5.27876 17 5.27879C17 5.27882 17 5.27885 17 5.27888C17 5.27891 17 5.27894 17 5.27897C17 5.279 17 5.27903 17 5.27906C17 5.27909 17 5.27912 17 5.27915C17 5.27918 17 5.27921 17 5.27924C17 5.27926 17 5.27929 17 5.27932C17 5.27935 17 5.27938 17 5.27941C17 5.27944 17 5.27947 17 5.2795C17 5.27953 17 5.27955 17 5.27958C17 5.27961 17 5.27964 17 5.27967C17 5.2797 17 5.27973 17 5.27976C17 5.27978 17 5.27981 17 5.27984C17 5.27987 17 5.2799 17 5.27993C17 5.27995 17 5.27998 17 5.28001C17 5.28004 17 5.28007 17 5.28009C17 5.28012 17 5.28015 17 5.28018C17 5.28021 17 5.28023 17 5.28026C17 5.28029 17 5.28032 17 5.28034C17 5.28037 17 5.2804 17 5.28043C17 5.28046 17 5.28048 17 5.28051C17 5.28054 17 5.28056 17 5.28059C17 5.28062 17 5.28065 17 5.28067C17 5.2807 17 5.28073 17 5.28075C17 5.28078 17 5.28081 17 5.28084C17 5.28086 17 5.28089 17 5.28092C17 5.28094 17 5.28097 17 5.281C17 5.28102 17 5.28105 17 5.28108C17 5.2811 17 5.28113 17 5.28115C17 5.28118 17 5.28121 17 5.28123C17 5.28126 17 5.28129 17 5.28131C17 5.28134 17 5.28136 17 5.28139C17 5.28142 17 5.28144 17 5.28147C17 5.28149 17 5.28152 17 5.28154C17 5.28157 17 5.2816 17 5.28162C17 5.28165 17 5.28167 17 5.2817C17 5.28172 17 5.28175 17 5.28177C17 5.2818 17 5.28182 17 5.28185C17 5.28187 17 5.2819 17 5.28192C17 5.28195 17 5.28197 17 5.282C17 5.28202 17 5.28205 17 5.28207C17 5.2821 17 5.28212 17 5.28215C17 5.28217 17 5.2822 17 5.28222C17 5.28225 17 5.28227 17 5.28229C17 5.28232 17 5.28234 17 5.28237C17 5.28239 17 5.28241 17 5.28244C17 5.28246 17 5.28249 17 5.28251C17 5.28253 17 5.28256 17 5.28258C17 5.28261 17 5.28263 17 5.28265C17 5.28268 17 5.2827 17 5.28272C17 5.28275 17 5.28277 17 5.28279C17 5.28282 17 5.28284 17 5.28286C17 5.28289 17 5.28291 17 5.28293C17 5.28296 17 5.28298 17 5.283C17 5.28302 17 5.28305 17 5.28307C17 5.28309 17 5.28312 17 5.28314C17 5.28316 17 5.28318 17 5.28321C17 5.28323 17 5.28325 17 5.28327C17 5.2833 17 5.28332 17 5.28334C17 5.28336 17 5.28338 17 5.28341C17 5.28343 17 5.28345 17 5.28347C17 5.28349 17 5.28352 17 5.28354C17 5.28356 17 5.28358 17 5.2836C17 5.28363 17 5.28365 17 5.28367C17 5.28369 17 5.28371 17 5.28373C17 5.28375 17 5.28377 17 5.2838C17 5.28382 17 5.28384 17 5.28386C17 5.28388 17 5.2839 17 5.28392C17 5.28394 17 5.28396 17 5.28398C17 5.28401 17 5.28403 17 5.28405C17 5.28407 17 5.28409 17 5.28411C17 5.28413 17 5.28415 17 5.28417C17 5.28419 17 5.28421 17 5.28423C17 5.28425 17 5.28427 17 5.28429C17 5.28431 17 5.28433 17 5.28435C17 5.28437 17 5.28439 17 5.28441C17 5.28443 17 5.28445 17 5.28447C17 5.28449 17 5.28451 17 5.28453C17 5.28455 17 5.28457 17 5.28458C17 5.2846 17 5.28462 17 5.28464C17 5.28466 17 5.28468 17 5.2847C17 5.28472 17 5.28474 17 5.28476C17 5.28477 17 5.28479 17 5.28481C17 5.28483 17 5.28485 17 5.28487C17 5.28489 17 5.2849 17 5.28492C17 5.28494 17 5.28496 17 5.28498C17 5.285 17 5.28501 17 5.28503C17 5.28505 17 5.28507 17 5.28509C17 5.2851 17 5.28512 17 5.28514C17 5.28516 17 5.28517 17 5.28519C17 5.28521 17 5.28523 17 5.28524C17 5.28526 17 5.28528 17 5.2853C17 5.28531 17 5.28533 17 5.28535C17 5.28537 17 5.28538 17 5.2854C17 5.28542 17 5.28543 17 5.28545C17 5.28547 17 5.28548 17 5.2855C17 5.28552 17 5.28553 17 5.28555C17 5.28557 17 5.28558 17 5.2856C17 5.28562 17 5.28563 17 5.28565C17 5.28566 17 5.28568 17 5.2857C17 5.28571 17 5.28573 17 5.28574C17 5.28576 17 5.28578 17 5.28579C17 5.28581 17 5.28582 17 5.28584C17 5.28585 17 5.28587 17 5.28588C17 5.2859 17 5.28591 17 5.28593C17 5.28595 17 5.28596 17 5.28598C17 5.28599 17 5.28601 17 5.28602C17 5.28604 17 5.28605 17 5.28607C17 5.28608 17 5.28609 17 5.28611C17 5.28612 17 5.28614 17 5.28615C17 5.28617 17 5.28618 17 5.2862C17 5.28621 17 5.28622 17 5.28624C17 5.28625 17 5.28627 17 5.28628C17 5.28629 17 5.28631 17 5.28632C17 5.28633 17 5.28635 17 5.28636C17 5.28638 17 5.28639 17 5.2864C17 5.28642 17 5.28643 17 5.28644C17 5.28646 17 5.28647 17 5.28648C17 5.2865 17 5.28651 17 5.28652C17 5.28653 17 5.28655 17 5.28656C17 5.28657 17 5.28659 17 5.2866C17 5.28661 17 5.28662 17 5.28664C17 5.28665 17 5.28666 17 5.28667C17 5.28668 17 5.2867 17 5.28671C17 5.28672 17 5.28673 17 5.28675C17 5.28676 17 5.28677 17 5.28678C17 5.28679 17 5.2868 17 5.28682C17 5.28683 17 5.28684 17 5.28685C17 5.28686 17 5.28687 17 5.28688C17 5.2869 17 5.28691 17 5.28692C17 5.28693 17 5.28694 17 5.28695C17 5.28696 17 5.28697 17 5.28698C17 5.28699 17 5.287 17 5.28701C17 5.28703 17 5.28704 17 5.28705C17 5.28706 17 5.28707 17 5.28708C17 5.28709 17 5.2871 17 5.28711C17 5.28712 17 5.28713 17 5.28714C17 5.28715 17 5.28716 17 5.28717C17 5.28718 17 5.28719 17 5.2872C17 5.28721 17 5.28721 17 5.28722C17 5.28723 17 5.28724 17 5.28725C17 5.28726 17 5.28727 17 5.28728C17 5.28729 17 5.2873 17 5.28731C17 5.28731 17 5.28732 17 5.28733C17 5.28734 17 5.28735 17 5.28736C17 5.28737 17 5.28737 17 5.28738C17 5.28739 17 5.2874 17 5.28741C17 5.28742 17 5.28742 17 5.28743C17 5.28744 17 5.28745 17 5.28746C17 5.28746 17 5.28747 17 5.28748C17 5.28749 17 5.28749 17 5.2875C17 5.28751 17 5.28752 17 5.28752C17 5.28753 17 5.28754 17 5.28754C17 5.28755 17 5.28756 17 5.28757C17 5.28757 17 5.28758 17 5.28759C17 5.28759 17 5.2876 17 5.28761C17 5.28761 17 5.28762 17 5.28762C17 5.28763 17 5.28764 17 5.28764C17 5.28765 17 5.28766 17 5.28766C17 5.28767 17 5.28767 17 5.28768C17 5.28768 17 5.28769 17 5.2877C17 5.2877 17 5.28771 17 5.28771C17 5.28772 17 5.28772 17 5.28773C17 5.28773 17 5.28774 17 5.28774C17 5.28775 17 5.28775 17 5.28776C17 5.28776 17 5.28777 17 5.28777C17 5.28778 17 5.28778 17 5.28779C17 5.28779 17 5.2878 17 5.2878C17 5.28781 17 5.28781 17 5.28781C17 5.28782 17 5.28782 17 5.28783C17 5.28783 17 5.28783 17 5.28784C17 5.28784 17 5.28785 17 5.28785C17 5.28785 17 5.28786 17 5.28786C17 5.28786 17 5.28787 17 5.28787C17 5.28787 17 5.28788 17 5.28788C17 5.28788 17 5.28788 17 5.28789C17 5.28789 17 5.28789 17 5.2879C17 5.2879 17 5.2879 17 5.2879C17 5.28791 17 5.28791 17 5.28791C17 5.28791 17 5.28792 17 5.28792C17 5.28792 17 5.28792 17 5.28792C17 5.28793 17 5.28793 17 5.28793C17 5.28793 17 5.28793 17 5.28793C17 5.28794 17 5.28794 17 5.28794C17 5.28794 17 5.28794 17 5.28794C17 5.28794 17 5.28794 17 5.28794C17 5.28795 17 5.28795 17 5.28795C17 5.28795 17 5.28795 17 5.28795C17 5.28795 17 5.28795 17 5.28795V5.28795C17 5.28795 17 5.28795 19 5.28795ZM13.0694 17.4819H1.6474V21.4819H13.0694V17.4819ZM3.6474 19.4819V5.43976H-0.352601V19.4819H3.6474ZM1.6474 7.43976H4.28324V3.43976H1.6474V7.43976ZM2.28324 5.43976V15.5602H6.28324V5.43976H2.28324ZM2.28324 15.5602C2.28324 17.6506 4.07709 19.0783 5.93064 19.0783V15.0783C5.98226 15.0783 6.05357 15.0981 6.12247 15.1616C6.19352 15.2271 6.28324 15.3652 6.28324 15.5602H2.28324ZM5.93064 19.0783H13.0694V15.0783H5.93064V19.0783ZM11.0694 17.0783V19.4819H15.0694V17.0783H11.0694ZM17.3526 13.5602H14.7168V17.5602H17.3526V13.5602ZM14.7168 13.5602H13.0694V17.5602H14.7168V13.5602ZM13.0694 13.5602H5.93064V17.5602H13.0694V13.5602ZM7.93064 15.5602V5.43976H3.93064V15.5602H7.93064ZM7.93064 5.43976V3.92169H3.93064V5.43976H7.93064ZM7.93064 3.92169V1.51807H3.93064V3.92169H7.93064ZM5.93064 3.51807H11.6416V-0.481928H5.93064V3.51807ZM9.64162 1.51807V1.54337H13.6416V1.51807H9.64162ZM9.64162 1.54337V5.31325H13.6416V1.54337H9.64162ZM9.64162 5.31325C9.64162 6.9016 10.7187 8.12628 11.9795 8.60156L13.3905 4.85868C13.4372 4.87629 13.4887 4.90949 13.5358 4.97218C13.5859 5.03886 13.6416 5.15661 13.6416 5.31325H9.64162ZM11.9503 8.59031C12.4473 8.78656 12.9073 8.83133 13.289 8.83133V4.83133C13.2548 4.83133 13.2607 4.82923 13.2905 4.83396C13.3244 4.83934 13.3703 4.85047 13.4196 4.86993L11.9503 8.59031ZM13.289 8.83133H17.3801V4.83133H13.289V8.83133ZM15.3801 6.83133V15.5602H19.3801V6.83133H15.3801ZM17.3801 13.5602H17.3526V17.5602H17.3801V13.5602ZM15.289 5.28795V1.54337H11.289V5.28795H15.289ZM11.9337 3.01414L16.0248 6.78402L18.7354 3.84249L14.6443 0.0726092L11.9337 3.01414ZM17.3801 3.31325H13.289V7.31325H17.3801V3.31325ZM15.289 5.31325V5.28795H11.289V5.31325H15.289Z" fill="url(#paint0_linear)" mask="url(#path-1-inside-1)"/>
<defs>
<linearGradient id="paint0_linear" x1="18.1338" y1="5.25" x2="0.416943" y2="6.11741" gradientUnits="userSpaceOnUse">
<stop stop-color="#E2C299"/>
<stop offset="1" stop-color="#C5A67C"/>
</linearGradient>
</defs>
</svg>
