<svg width="15" height="15" viewBox="0 0 15 15" fill="none" xmlns="http://www.w3.org/2000/svg">
<path fill-rule="evenodd" clip-rule="evenodd" d="M14.5 13H13V14.5C13 14.8 12.8 15 12.5 15C12.2 15 12 14.8 12 14.5V13H10.5C10.2 13 10 12.8 10 12.5C10 12.2 10.2 12 10.5 12H12V10.5C12 10.2 12.2 10 12.5 10C12.8 10 13 10.2 13 10.5V12H14.5C14.8 12 15 12.2 15 12.5C15 12.8 14.8 13 14.5 13ZM8.2 8.4C9.1 8.7 9.8 9.3 10.4 9.9C10.1 10.1 9.9 10.4 9.7 10.6C8.8 9.7 7.5 9 6 9C3.2 9 1 11.2 1 14V15H0V14C0 11.5 1.6 9.3 3.8 8.4C2.4 7.7 1.5 6.2 1.5 4.5C1.5 2 3.5 0 6 0C8.5 0 10.5 2 10.5 4.5C10.5 6.2 9.6 7.7 8.2 8.4ZM6 1C4.1 1 2.5 2.6 2.5 4.5C2.5 6.4 4.1 8 6 8C7.9 8 9.5 6.4 9.5 4.5C9.5 2.6 7.9 1 6 1Z" fill="white"/>
</svg>
