<svg width="108" height="20" viewBox="0 0 108 20" fill="none" xmlns="http://www.w3.org/2000/svg">
<g clip-path="url(#clip0)">
<path d="M5.2016 10.58L2.19989 17.14H0L3.31011 10.12C1.74757 9.36 0.719589 7.96 0.719589 5.4C0.719589 1.8 3.06339 0 5.83895 0H8.67619V17.14H6.78469V10.58H5.2016ZM6.78469 1.56H5.77727C4.25585 1.56 2.77556 2.54 2.77556 5.4C2.77556 8.16 4.1325 9.04 5.77727 9.04H6.78469V1.56Z" fill="#FF0000"/>
<path d="M17.825 5.06037V17.1404H15.9335V11.7204H13.0757V17.1404H11.1431V5.06037H13.0757V10.2004H15.9335V5.06037H17.825ZM27.7142 19.5204H25.9872V17.1404H20.6622V19.5204H18.9352V15.6204H19.6959C20.8267 13.0604 20.95 9.32037 20.95 6.10037V5.06037H26.7273V15.6204H27.7142V19.5204ZM24.8358 6.58037H22.6976V6.80037C22.6976 9.34037 22.5743 13.0604 21.5463 15.6204H24.8564V6.58037H24.8358ZM33.0186 17.3204C30.4486 17.3204 28.8861 15.3404 28.8861 11.6204C28.8861 7.74037 29.9963 4.90037 32.6279 4.90037C34.7045 4.90037 36.0614 6.42037 36.0614 10.5204V11.5604H30.8804C30.8804 14.3004 31.6616 15.7404 33.2036 15.7404C34.2933 15.7404 35.1568 15.2604 35.6502 14.9204L36.1025 16.3604C35.2801 16.9404 34.2522 17.3204 33.0186 17.3204ZM30.9009 10.0004H34.0877C34.0877 7.94037 33.7382 6.42037 32.6279 6.42037C31.4355 6.42037 31.0243 7.84037 30.9009 10.0004ZM39.9472 11.1204V17.1404H38.0146V5.06037H39.9472V10.6404L42.9283 5.06037H44.8815L41.7976 10.7404L45.3133 17.1404H43.2162L39.9472 11.1204ZM45.56 11.1004C45.56 7.32037 47.0608 4.88037 49.9803 4.88037C51.0905 4.88037 51.7279 5.16037 52.283 5.50037L52.0157 7.28037C51.5017 6.84037 50.7616 6.44037 49.9598 6.44037C48.5823 6.44037 47.5954 7.96037 47.5954 11.0004C47.5954 14.0204 48.3355 15.7404 49.8981 15.7404C50.8438 15.7404 51.5428 15.3804 51.9952 15.0004L52.4475 16.4004C51.7896 16.9604 50.9877 17.3204 49.857 17.3204C47.1636 17.3204 45.56 15.2204 45.56 11.1004Z" fill="black"/>
<path d="M65.4828 17.14H57.9374L57.7729 20H56.8066V16.16H57.3206C58.1841 15.46 58.5953 13.54 58.8421 11.1C59.0888 8.56 59.171 4.76 59.2327 0H65.4006V16.16H66.6136V20H65.6473L65.4828 17.14ZM64.1876 0.98H60.3635C60.2812 5.32 60.1579 8.62 59.9728 11.1C59.7467 13.66 59.356 15.36 58.6981 16.16H64.1876V0.98Z" fill="black"/>
<path d="M71.7324 16.3998C73.3772 16.3998 74.2407 15.0998 74.2407 15.0998L74.6108 16.0198C74.6108 16.0198 73.665 17.3798 71.7119 17.3798C69.0802 17.3798 67.8672 15.0598 67.8672 11.0998C67.8672 7.13983 69.3886 4.81982 71.4857 4.81982C73.6239 4.81982 75.0014 6.99983 74.6108 11.2998H68.998C69.0391 14.5998 69.9232 16.3998 71.7324 16.3998ZM69.0185 10.3998H73.5211C73.7267 7.17982 72.7398 5.73982 71.4651 5.73982C70.1699 5.75982 69.1213 7.37982 69.0185 10.3998Z" fill="black"/>
<path d="M82.1977 11.3201H77.9624V17.1401H76.811V5.06006H77.9624V10.4001H82.1977V5.06006H83.349V17.1401H82.1977V11.3201Z" fill="black"/>
<path d="M86.1036 5.06006H87.2549V9.54006H88.1595C90.5239 9.54006 92.0453 10.7801 92.0453 13.3001C92.0453 15.8601 90.4211 17.1401 88.0773 17.1401H86.083V5.06006H86.1036ZM87.2549 10.4401V16.2601H87.995C89.7426 16.2601 90.9351 15.4201 90.9351 13.3401C90.9351 11.3001 89.9071 10.4401 88.1184 10.4401H87.2549Z" fill="black"/>
<path d="M95.1913 6.00006V17.1601H94.0605V5.06006H99.3033V6.00006H95.1913Z" fill="black"/>
<path d="M106.89 8.72006C106.89 8.10006 106.931 7.56006 106.993 7.06006H106.91C106.746 7.58006 106.52 8.10006 106.252 8.62006L102.202 17.1401H101.215V5.06006H102.305V13.4601C102.305 14.1001 102.264 14.6401 102.202 15.1601H102.284C102.449 14.6001 102.696 14.0801 102.942 13.5601L106.993 5.08006H108V17.1601H106.89V8.72006Z" fill="black"/>
</g>
<defs>
<clipPath id="clip0">
<rect width="108" height="20" fill="white"/>
</clipPath>
</defs>
</svg>
