<svg width="32" height="32" viewBox="0 0 32 32" fill="none" xmlns="http://www.w3.org/2000/svg">
<path d="M17.3337 21.3333H4.00033C3.6467 21.3333 3.30756 21.4738 3.05752 21.7239C2.80747 21.9739 2.66699 22.313 2.66699 22.6667C2.66699 23.0203 2.80747 23.3594 3.05752 23.6095C3.30756 23.8595 3.6467 24 4.00033 24H17.3337C17.6873 24 18.0264 23.8595 18.2765 23.6095C18.5265 23.3594 18.667 23.0203 18.667 22.6667C18.667 22.313 18.5265 21.9739 18.2765 21.7239C18.0264 21.4738 17.6873 21.3333 17.3337 21.3333ZM4.00033 10.6667H28.0003C28.3539 10.6667 28.6931 10.5262 28.9431 10.2761C29.1932 10.0261 29.3337 9.68696 29.3337 9.33333C29.3337 8.97971 29.1932 8.64057 28.9431 8.39052C28.6931 8.14048 28.3539 8 28.0003 8H4.00033C3.6467 8 3.30756 8.14048 3.05752 8.39052C2.80747 8.64057 2.66699 8.97971 2.66699 9.33333C2.66699 9.68696 2.80747 10.0261 3.05752 10.2761C3.30756 10.5262 3.6467 10.6667 4.00033 10.6667ZM28.0003 14.6667H4.00033C3.6467 14.6667 3.30756 14.8071 3.05752 15.0572C2.80747 15.3072 2.66699 15.6464 2.66699 16C2.66699 16.3536 2.80747 16.6928 3.05752 16.9428C3.30756 17.1929 3.6467 17.3333 4.00033 17.3333H28.0003C28.3539 17.3333 28.6931 17.1929 28.9431 16.9428C29.1932 16.6928 29.3337 16.3536 29.3337 16C29.3337 15.6464 29.1932 15.3072 28.9431 15.0572C28.6931 14.8071 28.3539 14.6667 28.0003 14.6667Z" fill="#2B2B2C"/>
</svg>
