<svg width="24" height="24" viewBox="0 0 24 24" fill="none" xmlns="http://www.w3.org/2000/svg">
<path d="M12.0001 11C12.2654 11 12.5197 11.1054 12.7072 11.2929C12.8948 11.4804 13.0001 11.7348 13.0001 12V15C13.0001 15.2652 12.8948 15.5196 12.7072 15.7071C12.5197 15.8946 12.2654 16 12.0001 16C11.7349 16 11.4806 15.8946 11.293 15.7071C11.1055 15.5196 11.0001 15.2652 11.0001 15V12C11.0001 11.7348 11.1055 11.4804 11.293 11.2929C11.4806 11.1054 11.7349 11 12.0001 11ZM12.0001 8C12.1979 8 12.3913 8.05865 12.5557 8.16853C12.7202 8.27841 12.8483 8.43459 12.924 8.61732C12.9997 8.80004 13.0195 9.00111 12.9809 9.19509C12.9423 9.38907 12.8471 9.56725 12.7072 9.70711C12.5674 9.84696 12.3892 9.9422 12.1952 9.98079C12.0012 10.0194 11.8002 9.99957 11.6174 9.92388C11.4347 9.84819 11.2785 9.72002 11.1687 9.55557C11.0588 9.39112 11.0001 9.19778 11.0001 9C11.0001 8.73478 11.1055 8.48043 11.293 8.29289C11.4806 8.10536 11.7349 8 12.0001 8ZM12.0001 2C13.3134 2 14.6137 2.25866 15.827 2.7612C17.0402 3.26375 18.1426 4.00035 19.0712 4.92893C20.9466 6.8043 22.0001 9.34784 22.0001 12C22.0089 14.3091 21.2093 16.5485 19.7401 18.33L21.7401 20.33C21.8789 20.4706 21.9729 20.6492 22.0103 20.8432C22.0476 21.0372 22.0267 21.2379 21.9501 21.42C21.8671 21.5999 21.7324 21.7511 21.5633 21.8544C21.3941 21.9577 21.1981 22.0083 21.0001 22H12.0001C9.34797 22 6.80443 20.9464 4.92907 19.0711C3.0537 17.1957 2.00013 14.6522 2.00013 12C2.00013 9.34784 3.0537 6.8043 4.92907 4.92893C6.80443 3.05357 9.34797 2 12.0001 2ZM12.0001 20H18.5901L17.6601 19.07C17.5656 18.9774 17.4905 18.8669 17.439 18.7451C17.3875 18.6232 17.3607 18.4923 17.3601 18.36C17.3639 18.0962 17.4717 17.8446 17.6601 17.66C18.9695 16.352 19.785 14.6305 19.9674 12.7888C20.1499 10.947 19.6882 9.09901 18.6609 7.55952C17.6336 6.02004 16.1043 4.88436 14.3336 4.34597C12.5629 3.80759 10.6603 3.8998 8.94992 4.60691C7.23956 5.31402 5.82728 6.59227 4.9537 8.22389C4.08011 9.85551 3.79926 11.7395 4.15901 13.555C4.51875 15.3705 5.49683 17.005 6.9266 18.1802C8.35637 19.3554 10.1494 19.9985 12.0001 20Z" fill="#C8C8C8"/>
</svg>
