<svg width="20" height="20" viewBox="0 0 20 20" fill="none" xmlns="http://www.w3.org/2000/svg">
<path d="M5.83366 5.83341V2.50008C5.83366 2.27907 5.92146 2.06711 6.07774 1.91083C6.23402 1.75455 6.44598 1.66675 6.66699 1.66675H17.5003C17.7213 1.66675 17.9333 1.75455 18.0896 1.91083C18.2459 2.06711 18.3337 2.27907 18.3337 2.50008V13.3334C18.3337 13.5544 18.2459 13.7664 18.0896 13.9227C17.9333 14.079 17.7213 14.1667 17.5003 14.1667H14.167V17.4942C14.167 17.9576 13.7928 18.3334 13.3278 18.3334H2.50616C2.39593 18.3335 2.28676 18.3119 2.18489 18.2698C2.08303 18.2276 1.99048 18.1658 1.91253 18.0879C1.83459 18.0099 1.77278 17.9174 1.73065 17.8155C1.68851 17.7136 1.66688 17.6045 1.66699 17.4942L1.66949 6.67258C1.66949 6.20925 2.04366 5.83341 2.50866 5.83341H5.83366ZM7.50033 5.83341H13.3278C13.7912 5.83341 14.167 6.20758 14.167 6.67258V12.5001H16.667V3.33341H7.50033V5.83341ZM3.33616 7.50008L3.33366 16.6667H12.5003V7.50008H3.33616Z" fill="#5BB373"/>
</svg>
