<svg width="17" height="22" viewBox="0 0 17 22" fill="none" xmlns="http://www.w3.org/2000/svg">
<path d="M15.7112 8.91074V6.85186C15.7112 3.07375 12.6375 0 8.85938 0C5.08126 0 2.00751 3.07375 2.00751 6.85186V8.91074C1.2825 9.16788 0.761719 9.86025 0.761719 10.6723V13.1639C0.761719 17.6289 4.39433 21.2615 8.85938 21.2615C13.3244 21.2615 16.957 17.6289 16.957 13.1639V10.6723C16.957 9.86025 16.4362 9.16788 15.7112 8.91074ZM3.25331 6.85186C3.25331 3.76068 5.76819 1.23749 8.85938 1.23749C11.9506 1.23749 14.4654 3.76068 14.4654 6.85186V8.80361H13.2197V6.85186C13.2197 4.44761 11.2636 2.49159 8.85938 2.49159C6.45512 2.49159 4.4991 4.44761 4.4991 6.85186V8.80361H3.25331V6.85186ZM11.9739 6.85186V8.80361H5.74489V6.85186C5.74489 5.13454 7.14205 3.72907 8.85938 3.72907C10.5767 3.72907 11.9739 5.13454 11.9739 6.85186ZM15.7112 13.1639C15.7112 16.942 12.6375 20.0241 8.85938 20.0241C5.08126 20.0241 2.00751 16.942 2.00751 13.1639V10.6723C2.00751 10.3288 2.28694 10.0494 2.63041 10.0494H15.0883C15.4318 10.0494 15.7112 10.3288 15.7112 10.6723V13.1639Z" fill="#5BB373"/>
<path d="M8.85892 11.2952C7.82853 11.2952 6.99023 12.1335 6.99023 13.1639C6.99023 13.9759 7.51102 14.6683 8.23603 14.9254V16.9012C8.23603 17.2452 8.51492 17.5241 8.85892 17.5241C9.20293 17.5241 9.48182 17.2452 9.48182 16.9012V14.9254C10.2068 14.6683 10.7276 13.9759 10.7276 13.1639C10.7276 12.1335 9.88932 11.2952 8.85892 11.2952ZM8.85892 13.7868C8.51546 13.7868 8.23603 13.5073 8.23603 13.1639C8.23603 12.8204 8.51546 12.541 8.85892 12.541C9.20239 12.541 9.48182 12.8204 9.48182 13.1639C9.48182 13.5073 9.20239 13.7868 8.85892 13.7868Z" fill="#5BB373"/>
</svg>
