<svg width="25" height="25" viewBox="0 0 25 25" fill="none" xmlns="http://www.w3.org/2000/svg">
<rect width="25" height="25" fill="#5BB373"/>
<path d="M16.3543 13.9872C15.9344 13.8969 15.6023 14.0918 15.3083 14.2621C15.0071 14.4375 14.4345 14.902 14.1062 14.7831C12.4257 14.0912 10.8451 12.6203 10.1609 10.933C10.0403 10.5977 10.5027 10.0214 10.6768 9.71673C10.8457 9.42176 11.0366 9.08651 10.9496 8.66355C10.8709 8.28348 9.85326 6.98861 9.49342 6.63452C9.2561 6.40063 9.01299 6.27199 8.76342 6.25119C7.82512 6.21091 6.7772 7.4629 6.59341 7.76241C6.13297 8.40107 6.13555 9.25089 6.60115 10.2813C7.72323 13.0491 11.9672 17.226 14.7453 18.3903C15.258 18.63 15.7268 18.7502 16.1479 18.7502C16.56 18.7502 16.9269 18.6352 17.2423 18.4072C17.4802 18.2701 18.7835 17.1702 18.7493 16.2066C18.7287 15.9611 18.6004 15.7155 18.3695 15.4777C18.018 15.1145 16.7315 14.0665 16.3543 13.9872Z" fill="white"/>
</svg>
