<svg width="20" height="20" fill="none" xmlns="http://www.w3.org/2000/svg"><path opacity=".4" d="M14.34 0H5.67C2.28 0 0 2.38 0 5.92v8.17C0 17.62 2.28 20 5.67 20h8.67c3.39 0 5.66-2.38 5.66-5.91V5.92C20 2.38 17.73 0 14.34 0z" fill="#BDBDBD"/><path d="M9.033 11.38c0-.546.067-.982.2-1.306.132-.324.374-.642.726-.955.356-.316.592-.572.709-.767.117-.2.176-.409.176-.627 0-.66-.305-.99-.914-.99-.29 0-.522.09-.698.269-.171.176-.261.42-.27.732H7.265c.007-.746.248-1.33.72-1.752.477-.421 1.125-.632 1.946-.632.828 0 1.47.2 1.927.603.458.399.686.963.686 1.693 0 .332-.074.647-.223.944-.148.293-.408.619-.779.978l-.475.451c-.296.286-.466.62-.51 1.002l-.023.358h-1.5zm-.17 1.8c0-.262.088-.477.264-.645a.952.952 0 01.685-.258c.278 0 .504.086.68.258.18.168.27.383.27.645 0 .258-.088.47-.264.638-.172.168-.4.252-.685.252-.286 0-.516-.084-.692-.252a.855.855 0 01-.258-.638z" fill="#8B90A0"/></svg>
