<svg width="32" height="32" viewBox="0 0 32 32" fill="none" xmlns="http://www.w3.org/2000/svg">
<g opacity="0.34" filter="url(#filter0_f)">
<path d="M6 21L13.9967 21C15.101 21 15.9963 20.1049 15.9967 19.0006L15.9998 8.83271C15.9999 8.33729 15.8162 7.85944 15.4842 7.49174L13.8371 5.66767C13.4537 5.24304 12.9068 5.00295 12.3347 5.00811L5.98198 5.06535C4.88449 5.07523 4 5.96772 4 7.06526L4 19C4 20.1046 4.89543 21 6 21Z" fill="black"/>
</g>
<path d="M6 19L16.996 19C17.5482 19 17.9958 18.5525 17.996 18.0003L17.9999 3.99632C18 3.76424 17.9193 3.53937 17.7717 3.36024L15.3076 0.368861C15.1154 0.135588 14.8281 0.00173483 14.5259 0.00471973L5.99012 0.0890258C5.44172 0.0944423 5 0.540546 5 1.08898L5 18C5 18.5523 5.44772 19 6 19Z" fill="url(#paint0_linear)"/>
<rect x="7" y="5" width="9" height="12" rx="1" fill="url(#paint1_linear)"/>
<g opacity="0.34" filter="url(#filter1_f)">
<path fill-rule="evenodd" clip-rule="evenodd" d="M14.5 9C10.3579 9 7 12.3579 7 16.5C7 20.6421 10.3579 24 14.5 24L18.9927 24C19.7213 24 20.3922 24.3962 20.744 25.0341L21.6296 26.6398C21.9917 27.2962 22.8332 27.3065 23.2076 26.6589L26.213 21.4613C26.2209 21.4475 26.2093 21.4307 26.1936 21.4333V21.4333C26.1762 21.4362 26.1647 21.4157 26.1762 21.4023C27.3126 20.0877 28 18.3741 28 16.5C28 12.3579 24.6421 9 20.5 9H14.5Z" fill="black"/>
</g>
<path fill-rule="evenodd" clip-rule="evenodd" d="M15.5 7C11.3579 7 8 10.3579 8 14.5C8 18.6421 11.3579 22 15.5 22H20.0554L21.7735 24.7256C22.162 25.342 23.065 25.3516 23.4668 24.7436L26.6052 19.9943C28.0784 18.6248 29 16.67 29 14.5C29 10.3579 25.6421 7 21.5 7H15.5Z" fill="url(#paint2_linear)"/>
<path d="M13.3675 17V16.048H14.0325V15.425H13.3675V12.114H12.3315L10.3505 15.369V16.048H12.6185V17H13.3675ZM12.5695 12.835H12.6185V15.425H11.0225L12.5695 12.835ZM16.4167 17.084C17.4527 17.084 18.1317 16.405 18.1317 15.425C18.1317 14.501 17.5227 13.913 16.6967 13.913C16.0877 13.913 15.7657 14.242 15.5627 14.627L15.5137 14.613C15.7517 13.563 16.3887 12.919 17.4947 12.114H16.4447C15.6397 12.646 14.6947 13.766 14.6947 15.18C14.6947 16.349 15.3387 17.084 16.4167 17.084ZM16.4167 16.44C15.8497 16.44 15.5137 16.125 15.5137 15.544V15.446C15.5137 14.865 15.8497 14.55 16.4167 14.55C16.9837 14.55 17.3197 14.865 17.3197 15.446V15.544C17.3197 16.125 16.9837 16.44 16.4167 16.44ZM22.056 12.114H19.284L19.102 14.837L19.753 14.928C19.928 14.732 20.159 14.543 20.579 14.543C21.153 14.543 21.482 14.879 21.482 15.439V15.523C21.482 16.083 21.153 16.419 20.579 16.419C20.033 16.419 19.76 16.139 19.522 15.754L18.948 16.209C19.242 16.657 19.697 17.084 20.565 17.084C21.671 17.084 22.308 16.391 22.308 15.418C22.308 14.459 21.671 13.892 20.831 13.892C20.271 13.892 20.026 14.144 19.809 14.529H19.76L19.886 12.8H22.056V12.114ZM24.0343 14.123V14.795H24.5523C25.1683 14.795 25.5183 15.068 25.5183 15.565V15.614C25.5183 16.118 25.1893 16.419 24.5943 16.419C24.0273 16.419 23.7403 16.146 23.5023 15.754L22.9213 16.209C23.2293 16.657 23.6843 17.084 24.5943 17.084C25.6373 17.084 26.3373 16.51 26.3373 15.656C26.3373 14.949 25.8683 14.55 25.3153 14.445V14.41C25.8263 14.298 26.2533 13.913 26.2533 13.29C26.2533 12.499 25.5883 12.03 24.6643 12.03C23.8523 12.03 23.4043 12.408 23.1103 12.835L23.6353 13.29C23.8593 12.919 24.1813 12.695 24.6433 12.695C25.1123 12.695 25.4203 12.947 25.4203 13.388V13.437C25.4203 13.836 25.1333 14.123 24.5313 14.123H24.0343Z" fill="url(#paint3_linear)"/>
<defs>
<filter id="filter0_f" x="0" y="1.00806" width="19.9998" height="23.992" filterUnits="userSpaceOnUse" color-interpolation-filters="sRGB">
<feFlood flood-opacity="0" result="BackgroundImageFix"/>
<feBlend mode="normal" in="SourceGraphic" in2="BackgroundImageFix" result="shape"/>
<feGaussianBlur stdDeviation="2" result="effect1_foregroundBlur"/>
</filter>
<filter id="filter1_f" x="3" y="5" width="29" height="26.1384" filterUnits="userSpaceOnUse" color-interpolation-filters="sRGB">
<feFlood flood-opacity="0" result="BackgroundImageFix"/>
<feBlend mode="normal" in="SourceGraphic" in2="BackgroundImageFix" result="shape"/>
<feGaussianBlur stdDeviation="2" result="effect1_foregroundBlur"/>
</filter>
<linearGradient id="paint0_linear" x1="14.75" y1="18.1338" x2="13.3548" y2="0.485126" gradientUnits="userSpaceOnUse">
<stop stop-color="#E2C299"/>
<stop offset="1" stop-color="#C5A67C"/>
</linearGradient>
<linearGradient id="paint1_linear" x1="15.7299" y1="5.63394" x2="4.96844" y2="13.4605" gradientUnits="userSpaceOnUse">
<stop stop-color="#EBDAC5"/>
<stop offset="1" stop-color="#E1CFB7"/>
</linearGradient>
<linearGradient id="paint2_linear" x1="28.6367" y1="16.7304" x2="6.83225" y2="16.7304" gradientUnits="userSpaceOnUse">
<stop stop-color="#DEDEDE"/>
<stop offset="1" stop-color="#787878"/>
</linearGradient>
<linearGradient id="paint3_linear" x1="26.375" y1="15.5" x2="11.9375" y2="15.5" gradientUnits="userSpaceOnUse">
<stop stop-color="#A4A4A4"/>
<stop offset="1" stop-color="#272727"/>
</linearGradient>
</defs>
</svg>
