<svg width="19" height="35" viewBox="0 0 19 35" fill="none" xmlns="http://www.w3.org/2000/svg">
<path d="M15.3392 28.0141L0 34.6471C0 28.7164 0.545049 26.8435 1.79087 25.595C2.78754 24.5961 7.76046 22.4735 10.1223 21.5371C13.0552 21.0949 18.9366 20.8035 18.9988 23.1758C19.0611 25.5481 16.5851 27.3898 15.3392 28.0141Z" fill="url(#paint0_linear)"/>
<path d="M19 0C19 0 3.54729 6.49186 1.98092 8.42397C0.414556 10.3561 1.45841 10.8971 1.45841 10.8971L6.01177 14.5294L11.3764 12.0077C16.0295 9.82034 19 5.1416 19 0Z" fill="url(#paint1_linear)"/>
<path d="M15.7059 23.8181C18.4638 25.0203 17.3147 26.4478 16.9316 26.8235C18.2546 25.5259 19 23.7507 19 21.8977V21.7938C19 18.6274 16.9116 15.851 13.8848 14.9211C13.5152 14.8076 13.2154 14.7139 13.0246 14.6515C11.8754 14.2758 6.43628 12.4726 4.21464 11.7963C1.99301 11.1201 1.60877 10.0682 1.76199 8.94116C0.536257 9.76766 0.0778365 11.7963 0.00122844 15.0272C-0.0753796 18.258 3.44859 19.5353 5.67023 20.2116C7.89186 20.8878 12.948 22.6159 15.7059 23.8181Z" fill="url(#paint2_linear)"/>
<defs>
<linearGradient id="paint0_linear" x1="1.9152" y1="23.5458" x2="10.3381" y2="30.2965" gradientUnits="userSpaceOnUse">
<stop stop-color="#EEEEEE"/>
<stop offset="1" stop-color="#9E9E9E"/>
</linearGradient>
<linearGradient id="paint1_linear" x1="25.1471" y1="-1.28939e-06" x2="5.02449" y2="7.67398" gradientUnits="userSpaceOnUse">
<stop stop-color="#9E9E9E"/>
<stop offset="1" stop-color="#EEEEEE"/>
</linearGradient>
<linearGradient id="paint2_linear" x1="1.9152" y1="12.0217" x2="12.077" y2="18.13" gradientUnits="userSpaceOnUse">
<stop stop-color="#9E9E9E"/>
<stop offset="1" stop-color="#EEEEEE"/>
</linearGradient>
</defs>
</svg>
