<svg width="17" height="19" viewBox="0 0 17 19" fill="none" xmlns="http://www.w3.org/2000/svg">
<path fill-rule="evenodd" clip-rule="evenodd" d="M10.7194 11.9598C9.81438 12.6143 8.70224 13 7.5 13C4.46243 13 2 10.5376 2 7.5C2 4.46243 4.46243 2 7.5 2C10.5376 2 13 4.46243 13 7.5C13 9.03244 12.3733 10.4185 11.3621 11.4158C11.2172 11.4555 11.0791 11.5286 10.9596 11.6356C10.8551 11.7293 10.7749 11.84 10.7194 11.9598ZM11.5617 13.806C10.3912 14.5615 8.9968 15 7.5 15C3.35786 15 0 11.6421 0 7.5C0 3.35786 3.35786 0 7.5 0C11.6421 0 15 3.35786 15 7.5C15 9.42448 14.2752 11.1797 13.0836 12.5075L16.6187 16.4525C16.9873 16.8638 16.9527 17.496 16.5414 17.8646C16.1301 18.2331 15.4978 18.1985 15.1293 17.7872L11.5617 13.806Z" fill="#A0A0A0"/>
</svg>
