<svg width="241" height="8" viewBox="0 0 241 8" fill="none" xmlns="http://www.w3.org/2000/svg">
<path d="M240.473 4.35355C240.668 4.15829 240.668 3.84171 240.473 3.64645L237.291 0.464466C237.095 0.269204 236.779 0.269204 236.584 0.464466C236.388 0.659728 236.388 0.976311 236.584 1.17157L239.412 4L236.584 6.82843C236.388 7.02369 236.388 7.34027 236.584 7.53553C236.779 7.7308 237.095 7.7308 237.291 7.53553L240.473 4.35355ZM0.119141 4.5H2.61914V3.5H0.119141L0.119141 4.5ZM7.61914 4.5L12.6191 4.5V3.5L7.61914 3.5V4.5ZM17.6191 4.5L22.6191 4.5V3.5L17.6191 3.5V4.5ZM27.6191 4.5H32.6191V3.5H27.6191V4.5ZM37.6191 4.5H42.6191V3.5L37.6191 3.5V4.5ZM47.6191 4.5L52.6191 4.5V3.5L47.6191 3.5V4.5ZM57.6191 4.5H62.6191V3.5H57.6191V4.5ZM67.6191 4.5H72.6191V3.5L67.6191 3.5V4.5ZM77.6191 4.5L82.6191 4.5V3.5L77.6191 3.5V4.5ZM87.6191 4.5H92.6191V3.5L87.6191 3.5V4.5ZM97.6191 4.5H102.619V3.5H97.6191V4.5ZM107.619 4.5L112.619 4.5V3.5L107.619 3.5V4.5ZM117.619 4.5H122.619V3.5L117.619 3.5V4.5ZM127.619 4.5H132.619V3.5H127.619V4.5ZM137.619 4.5H142.619V3.5L137.619 3.5V4.5ZM147.619 4.5H152.619V3.5L147.619 3.5V4.5ZM157.619 4.5H162.619V3.5H157.619V4.5ZM167.619 4.5H172.619V3.5L167.619 3.5V4.5ZM177.619 4.5L182.619 4.5V3.5L177.619 3.5V4.5ZM187.619 4.5H192.619V3.5H187.619V4.5ZM197.619 4.5H202.619V3.5L197.619 3.5V4.5ZM207.619 4.5L212.619 4.5V3.5L207.619 3.5V4.5ZM217.619 4.5H222.619V3.5L217.619 3.5V4.5ZM227.619 4.5H232.619V3.5L227.619 3.5V4.5ZM237.619 4.5L240.119 4.5V3.5H237.619V4.5Z" fill="#C4C4C4"/>
</svg>
