<svg width="16" height="13" viewBox="0 0 16 13" fill="none" xmlns="http://www.w3.org/2000/svg">
<path fill-rule="evenodd" clip-rule="evenodd" d="M16 12.5C16 12.8 15.8 13 15.5 13H0.5C0.2 13 0 12.8 0 12.5V0.5C0 0.4 0.1 0.3 0.1 0.2C0.3 0.1 0.3 0 0.5 0C0.5 0 0.5 0 0.6 0H15.6C15.6 0 15.6 0 15.7 0C15.8 0 15.9 0 16 0.1C15.9 0.3 16 0.4 16 0.5V12.5ZM1 11.5C1 11.8 1.2 12 1.5 12H14.5C14.8 12 15 11.8 15 11.5V1.5L8.4 6.8C8.2 7 8.1 7 8 7C7.9 7 7.7 7 7.6 6.9L1 1.5V11.5ZM8 5.9L14.1 1H1.9L8 5.9Z" fill="white"/>
</svg>
