<svg width="16" height="15" viewBox="0 0 16 15" fill="none" xmlns="http://www.w3.org/2000/svg">
<path fill-rule="evenodd" clip-rule="evenodd" d="M14.5 13H10L8 15L6 13H1.5C0.7 13 0 12.3 0 11.5V1.5C0 0.7 0.7 0 1.5 0H14.5C15.3 0 16 0.7 16 1.5V11.5C16 12.3 15.3 13 14.5 13ZM15 1.5C15 1.2 14.8 1 14.5 1H1.5C1.2 1 1 1.2 1 1.5V11.5C1 11.8 1.2 12 1.5 12H6.5L8 13.5L9.5 12H14.5C14.8 12 15 11.8 15 11.5V1.5ZM12 7C11.4 7 11 6.6 11 6C11 5.4 11.4 5 12 5C12.6 5 13 5.4 13 6C13 6.6 12.6 7 12 7ZM8 7C7.4 7 7 6.6 7 6C7 5.4 7.4 5 8 5C8.6 5 9 5.4 9 6C9 6.6 8.6 7 8 7ZM4 7C3.4 7 3 6.6 3 6C3 5.4 3.4 5 4 5C4.6 5 5 5.4 5 6C5 6.6 4.6 7 4 7Z" fill="white"/>
</svg>
