<svg width="22" height="22" viewBox="0 0 22 22" fill="none" xmlns="http://www.w3.org/2000/svg">
<path d="M9.34084 4.79417C9.88256 4.65303 10.4402 4.58217 11 4.58334C12.7018 4.58334 14.3339 5.25938 15.5373 6.46274C16.7406 7.6661 17.4167 9.2982 17.4167 11C17.4178 11.5598 17.347 12.1174 17.2058 12.6592C17.1739 12.7753 17.1651 12.8967 17.18 13.0162C17.195 13.1358 17.2333 13.2512 17.2929 13.356C17.3525 13.4607 17.4322 13.5526 17.5273 13.6265C17.6225 13.7004 17.7313 13.7549 17.8475 13.7867C17.9267 13.7957 18.0067 13.7957 18.0858 13.7867C18.2928 13.7938 18.496 13.7306 18.6625 13.6074C18.8289 13.4842 18.9488 13.3083 19.0025 13.1083C19.1764 12.4193 19.2596 11.7106 19.25 11C19.25 8.81197 18.3808 6.71355 16.8336 5.16638C15.2865 3.6192 13.188 2.75001 11 2.75001C10.279 2.747 9.56086 2.83947 8.86417 3.02501C8.63454 3.09508 8.44157 3.25244 8.32673 3.46327C8.21188 3.67411 8.18434 3.92158 8.25001 4.15251C8.31449 4.37918 8.4638 4.57231 8.66692 4.69179C8.87005 4.81128 9.11139 4.84794 9.34084 4.79417ZM19.9008 18.5992L3.40084 2.09917C3.22823 1.92656 2.99412 1.82959 2.75001 1.82959C2.5059 1.82959 2.27179 1.92656 2.09917 2.09917C1.92656 2.27179 1.82959 2.5059 1.82959 2.75001C1.82959 2.99412 1.92656 3.22823 2.09917 3.40084L4.58334 5.84834C3.41411 7.31084 2.77716 9.12758 2.77716 11C2.77716 12.8724 3.41411 14.6892 4.58334 16.1517L3.01584 17.6825C2.88865 17.8114 2.80248 17.9751 2.76822 18.1529C2.73396 18.3308 2.75314 18.5147 2.82334 18.6817C2.89211 18.8491 3.00889 18.9924 3.15897 19.0935C3.30904 19.1947 3.4857 19.2491 3.66667 19.25H11C12.8757 19.2423 14.6928 18.5957 16.1517 17.4167L18.5992 19.8733C18.6844 19.9593 18.7858 20.0275 18.8975 20.074C19.0092 20.1205 19.129 20.1445 19.25 20.1445C19.371 20.1445 19.4908 20.1205 19.6025 20.074C19.7142 20.0275 19.8156 19.9593 19.9008 19.8733C20.0661 19.7024 20.1584 19.474 20.1584 19.2363C20.1584 18.9985 20.0661 18.7701 19.9008 18.5992ZM11 17.4167H5.87584L6.46251 16.8392C6.63324 16.6674 6.72907 16.4351 6.72907 16.1929C6.72907 15.9508 6.63324 15.7184 6.46251 15.5467C5.37029 14.4544 4.70872 13.0049 4.59927 11.4641C4.48982 9.92337 4.93983 8.39484 5.86667 7.15917L14.8408 16.1333C13.7326 16.9645 12.3852 17.4147 11 17.4167Z" fill="#D3D3D3"/>
<path d="M8.60254 10.1719L9.36914 8.7168H11.0781L9.68652 11.29L11.1465 14H9.42773L8.59766 12.4375L7.78223 14H6.05371L7.51855 11.29L6.13184 8.7168H7.86035L8.60254 10.1719ZM16.542 14H11.5811V12.9258L13.8662 10.5234C14.4294 9.88216 14.7109 9.37272 14.7109 8.99512C14.7109 8.68913 14.6442 8.45638 14.5107 8.29688C14.3773 8.13737 14.1836 8.05762 13.9297 8.05762C13.679 8.05762 13.4756 8.16504 13.3193 8.37988C13.1631 8.59147 13.085 8.85677 13.085 9.17578H11.4346C11.4346 8.73958 11.5436 8.33757 11.7617 7.96973C11.9798 7.59863 12.2826 7.30892 12.6699 7.10059C13.0573 6.89225 13.4902 6.78809 13.9688 6.78809C14.737 6.78809 15.3278 6.96549 15.7412 7.32031C16.1579 7.67513 16.3662 8.18457 16.3662 8.84863C16.3662 9.12858 16.3141 9.40202 16.21 9.66895C16.1058 9.93262 15.943 10.2109 15.7217 10.5039C15.5036 10.7936 15.1504 11.1826 14.6621 11.6709L13.7441 12.7305H16.542V14Z" fill="#D3D3D3"/>
</svg>
